CSLSans-Light.ufo
<glyph name="quotedbl" format="2">
  <advance width="400"/>
  <unicode hex="0022"/>
  <outline>
    <contour>
      <point x="258" y="472" type="line"/>
      <point x="258" y="740" type="line"/>
      <point x="310" y="740" type="line"/>
      <point x="310" y="472" type="line"/>
    </contour>
    <contour>
      <point x="90" y="472" type="line"/>
      <point x="90" y="740" type="line"/>
      <point x="142" y="740" type="line"/>
      <point x="142" y="472" type="line"/>
    </contour>
  </outline>
</glyph>
<glyph name="period" format="2">
  <advance width="300"/>
  <unicode hex="002E"/>
  <outline>
    <contour>
      <point x="150" y="-9" type="qcurve" smooth="yes"/>
      <point x="125" y="-9"/>
      <point x="102" y="16"/>
      <point x="102" y="36" type="qcurve" smooth="yes"/>
      <point x="102" y="47" type="line" smooth="yes"/>
      <point x="102" y="67"/>
      <point x="125" y="92"/>
      <point x="150" y="92" type="qcurve" smooth="yes"/>
      <point x="174" y="92"/>
      <point x="198" y="67"/>
      <point x="198" y="47" type="qcurve" smooth="yes"/>
      <point x="198" y="36" type="line" smooth="yes"/>
      <point x="198" y="-9"/>
    </contour>
  </outline>
</glyph>
<glyph name="three" format="2">
  <advance width="600"/>
  <unicode hex="0033"/>
  <outline>
    <contour>
      <point x="274" y="-12" type="qcurve" smooth="yes"/>
      <point x="190" y="-12"/>
      <point x="85" y="52"/>
      <point x="53" y="102" type="qcurve"/>
      <point x="98" y="136" type="line"/>
      <point x="126" y="91"/>
      <point x="208" y="42"/>
      <point x="273" y="42" type="qcurve" smooth="yes"/>
      <point x="349" y="42"/>
      <point x="435" y="117"/>
      <point x="435" y="183" type="qcurve" smooth="yes"/>
      <point x="435" y="199" type="line"/>
      <point x="429" y="340"/>
      <point x="273" y="340" type="qcurve" smooth="yes"/>
      <point x="185" y="340" type="line"/>
      <point x="185" y="392" type="line"/>
      <point x="268" y="392" type="line" smooth="yes"/>
      <point x="340" y="392"/>
      <point x="421" y="463"/>
      <point x="421" y="520" type="qcurve" smooth="yes"/>
      <point x="421" y="533" type="line" smooth="yes"/>
      <point x="421" y="592"/>
      <point x="343" y="656"/>
      <point x="282" y="656" type="qcurve" smooth="yes"/>
      <point x="221" y="656"/>
      <point x="147" y="607"/>
      <point x="126" y="565" type="qcurve"/>
      <point x="81" y="597" type="line"/>
      <point x="105" y="643"/>
      <point x="201" y="710"/>
      <point x="283" y="710" type="qcurve" smooth="yes"/>
      <point x="369" y="710"/>
      <point x="485" y="618"/>
      <point x="485" y="535" type="qcurve" smooth="yes"/>
      <point x="485" y="464"/>
      <point x="408" y="384"/>
      <point x="349" y="370" type="qcurve"/>
      <point x="349" y="366" type="line"/>
      <point x="412" y="356"/>
      <point x="499" y="267"/>
      <point x="499" y="189" type="qcurve" smooth="yes"/>
      <point x="499" y="99"/>
      <point x="376" y="-12"/>
    </contour>
  </outline>
</glyph>
<glyph name="five" format="2">
  <advance width="600"/>
  <unicode hex="0035"/>
  <outline>
    <contour>
      <point x="296" y="-12" type="qcurve" smooth="yes"/>
      <point x="151" y="-12"/>
      <point x="80" y="102" type="qcurve"/>
      <point x="125" y="136" type="line"/>
      <point x="153" y="91"/>
      <point x="231" y="42"/>
      <point x="296" y="42" type="qcurve" smooth="yes"/>
      <point x="374" y="42"/>
      <point x="457" y="127"/>
      <point x="457" y="200" type="qcurve" smooth="yes"/>
      <point x="457" y="217" type="line" smooth="yes"/>
      <point x="457" y="290"/>
      <point x="376" y="375"/>
      <point x="299" y="375" type="qcurve" smooth="yes"/>
      <point x="245" y="375"/>
      <point x="182" y="341"/>
      <point x="157" y="311" type="qcurve"/>
      <point x="105" y="319" type="line"/>
      <point x="130" y="698" type="line"/>
      <point x="491" y="698" type="line"/>
      <point x="491" y="645" type="line"/>
      <point x="179" y="645" type="line"/>
      <point x="157" y="353" type="line"/>
      <point x="163" y="352" type="line"/>
      <point x="188" y="389"/>
      <point x="259" y="426"/>
      <point x="315" y="426" type="qcurve" smooth="yes"/>
      <point x="407" y="426"/>
      <point x="520" y="314"/>
      <point x="520" y="213" type="qcurve" smooth="yes"/>
      <point x="520" y="111"/>
      <point x="400" y="-12"/>
    </contour>
  </outline>
</glyph>
<glyph name="eight" format="2">
  <advance width="600"/>
  <unicode hex="0038"/>
  <outline>
    <contour>
      <point x="300" y="40" type="qcurve" smooth="yes"/>
      <point x="381" y="40"/>
      <point x="473" y="115"/>
      <point x="473" y="179" type="qcurve" smooth="yes"/>
      <point x="473" y="202" type="line" smooth="yes"/>
      <point x="473" y="267"/>
      <point x="381" y="341"/>
      <point x="300" y="341" type="qcurve" smooth="yes"/>
      <point x="219" y="341"/>
      <point x="127" y="267"/>
      <point x="127" y="202" type="qcurve" smooth="yes"/>
      <point x="127" y="179" type="line" smooth="yes"/>
      <point x="127" y="115"/>
      <point x="219" y="40"/>
    </contour>
    <contour>
      <point x="300" y="392" type="qcurve"/>
      <point x="452" y="398"/>
      <point x="452" y="516" type="qcurve" smooth="yes"/>
      <point x="452" y="534" type="line" smooth="yes"/>
      <point x="452" y="592"/>
      <point x="372" y="658"/>
      <point x="300" y="658" type="qcurve" smooth="yes"/>
      <point x="228" y="658"/>
      <point x="148" y="592"/>
      <point x="148" y="534" type="qcurve" smooth="yes"/>
      <point x="148" y="516" type="line" smooth="yes"/>
      <point x="148" y="457"/>
      <point x="228" y="392"/>
    </contour>
    <contour>
      <point x="300" y="-12" type="qcurve" smooth="yes"/>
      <point x="186" y="-12"/>
      <point x="63" y="101"/>
      <point x="63" y="186" type="qcurve" smooth="yes"/>
      <point x="63" y="259"/>
      <point x="142" y="348"/>
      <point x="210" y="363" type="qcurve"/>
      <point x="210" y="370" type="line"/>
      <point x="86" y="409"/>
      <point x="86" y="535" type="qcurve" smooth="yes"/>
      <point x="86" y="615"/>
      <point x="199" y="710"/>
      <point x="300" y="710" type="qcurve" smooth="yes"/>
      <point x="401" y="710"/>
      <point x="514" y="615"/>
      <point x="514" y="535" type="qcurve" smooth="yes"/>
      <point x="514" y="409"/>
      <point x="390" y="370" type="qcurve"/>
      <point x="390" y="363" type="line"/>
      <point x="458" y="348"/>
      <point x="537" y="259"/>
      <point x="537" y="186" type="qcurve" smooth="yes"/>
      <point x="537" y="101"/>
      <point x="414" y="-12"/>
    </contour>
  </outline>
</glyph>
<glyph name="nine" format="2">
  <advance width="600"/>
  <unicode hex="0039"/>
  <outline>
    <contour>
      <point x="301" y="322" type="qcurve" smooth="yes"/>
      <point x="378" y="322"/>
      <point x="463" y="408"/>
      <point x="463" y="481" type="qcurve" smooth="yes"/>
      <point x="463" y="497" type="line" smooth="yes"/>
      <point x="463" y="571"/>
      <point x="377" y="658"/>
      <point x="301" y="658" type="qcurve" smooth="yes"/>
      <point x="224" y="658"/>
      <point x="138" y="571"/>
      <point x="138" y="498" type="qcurve" smooth="yes"/>
      <point x="138" y="481" type="line" smooth="yes"/>
      <point x="138" y="408"/>
      <point x="223" y="322"/>
    </contour>
    <contour>
      <point x="189" y="0" type="line"/>
      <point x="304" y="77"/>
      <point x="437" y="251"/>
      <point x="462" y="372" type="qcurve"/>
      <point x="458" y="373" type="line"/>
      <point x="402" y="271"/>
      <point x="284" y="271" type="qcurve" smooth="yes"/>
      <point x="193" y="271"/>
      <point x="76" y="387"/>
      <point x="76" y="484" type="qcurve" smooth="yes"/>
      <point x="76" y="586"/>
      <point x="198" y="710"/>
      <point x="300" y="710" type="qcurve" smooth="yes"/>
      <point x="410" y="710"/>
      <point x="468" y="640" type="qcurve"/>
      <point x="525" y="568"/>
      <point x="525" y="454" type="qcurve" smooth="yes"/>
      <point x="525" y="303"/>
      <point x="444" y="177" type="qcurve" smooth="yes"/>
      <point x="368" y="62"/>
      <point x="267" y="0" type="qcurve"/>
    </contour>
  </outline>
</glyph>
<glyph name="k" format="2">
  <advance width="513"/>
  <unicode hex="006B"/>
  <outline>
    <contour>
      <point x="425" y="0" type="line"/>
      <point x="231" y="268" type="line"/>
      <point x="150" y="186" type="line"/>
      <point x="150" y="0" type="line"/>
      <point x="93" y="0" type="line"/>
      <point x="93" y="740" type="line"/>
      <point x="150" y="740" type="line"/>
      <point x="150" y="251" type="line"/>
      <point x="153" y="251" type="line"/>
      <point x="277" y="382"/>
      <point x="403" y="512" type="qcurve"/>
      <point x="473" y="512" type="line"/>
      <point x="272" y="304" type="line"/>
      <point x="495" y="0" type="line"/>
    </contour>
  </outline>
</glyph>
<glyph name="n" format="2">
  <advance width="563"/>
  <unicode hex="006E"/>
  <outline>
    <contour>
      <point x="420" y="0" type="line"/>
      <point x="420" y="319" type="line" smooth="yes"/>
      <point x="420" y="473"/>
      <point x="289" y="473" type="qcurve" smooth="yes"/>
      <point x="235" y="473"/>
      <point x="150" y="416"/>
      <point x="150" y="360" type="qcurve" smooth="yes"/>
      <point x="150" y="0" type="line"/>
      <point x="93" y="0" type="line"/>
      <point x="93" y="512" type="line"/>
      <point x="150" y="512" type="line"/>
      <point x="150" y="431" type="line"/>
      <point x="153" y="431" type="line"/>
      <point x="191" y="524"/>
      <point x="304" y="524" type="qcurve" smooth="yes"/>
      <point x="386" y="524"/>
      <point x="477" y="423"/>
      <point x="477" y="329" type="qcurve" smooth="yes"/>
      <point x="477" y="0" type="line"/>
    </contour>
  </outline>
</glyph>
<glyph name="braceright" format="2">
  <advance width="332"/>
  <unicode hex="007D"/>
  <outline>
    <contour>
      <point x="63" y="-138" type="line"/>
      <point x="63" y="-93" type="line"/>
      <point x="162" y="-93" type="line"/>
      <point x="162" y="185" type="line" smooth="yes"/>
      <point x="162" y="233"/>
      <point x="214" y="297"/>
      <point x="259" y="303" type="qcurve"/>
      <point x="259" y="319" type="line"/>
      <point x="214" y="325"/>
      <point x="162" y="389"/>
      <point x="162" y="437" type="qcurve" smooth="yes"/>
      <point x="162" y="715" type="line"/>
      <point x="63" y="715" type="line"/>
      <point x="63" y="760" type="line"/>
      <point x="153" y="760" type="line" smooth="yes"/>
      <point x="182" y="760"/>
      <point x="212" y="726"/>
      <point x="212" y="700" type="qcurve" smooth="yes"/>
      <point x="212" y="431" type="line" smooth="yes"/>
      <point x="212" y="387"/>
      <point x="265" y="344"/>
      <point x="309" y="344" type="qcurve"/>
      <point x="309" y="278" type="line"/>
      <point x="265" y="278"/>
      <point x="212" y="235"/>
      <point x="212" y="191" type="qcurve" smooth="yes"/>
      <point x="212" y="-78" type="line" smooth="yes"/>
      <point x="212" y="-104"/>
      <point x="182" y="-138"/>
      <point x="153" y="-138" type="qcurve" smooth="yes"/>
    </contour>
  </outline>
</glyph>
<glyph name="brokenbar" format="2">
  <advance width="285"/>
  <unicode hex="00A6"/>
  <outline>
    <contour>
      <point x="118" y="-138" type="line"/>
      <point x="118" y="218" type="line"/>
      <point x="167" y="218" type="line"/>
      <point x="167" y="-138" type="line"/>
    </contour>
    <contour>
      <point x="118" y="404" type="line"/>
      <point x="118" y="760" type="line"/>
      <point x="167" y="760" type="line"/>
      <point x="167" y="404" type="line"/>
    </contour>
  </outline>
</glyph>
<glyph name="registered" format="2">
  <advance width="472"/>
  <unicode hex="00AE"/>
  <outline>
    <contour>
      <point x="250" y="506" type="line"/>
      <point x="282" y="507"/>
      <point x="282" y="535" type="qcurve" smooth="yes"/>
      <point x="282" y="551" type="line" smooth="yes"/>
      <point x="282" y="581"/>
      <point x="250" y="581" type="qcurve" smooth="yes"/>
      <point x="196" y="581" type="line"/>
      <point x="196" y="506" type="line"/>
    </contour>
    <contour>
      <point x="289" y="396" type="line"/>
      <point x="242" y="481" type="line"/>
      <point x="196" y="481" type="line"/>
      <point x="196" y="396" type="line"/>
      <point x="165" y="396" type="line"/>
      <point x="165" y="607" type="line"/>
      <point x="251" y="607" type="line"/>
      <point x="315" y="604"/>
      <point x="315" y="544" type="qcurve" smooth="yes"/>
      <point x="315" y="496"/>
      <point x="273" y="484" type="qcurve"/>
      <point x="323" y="396" type="line"/>
    </contour>
    <contour>
      <point x="236" y="329" type="qcurve" smooth="yes"/>
      <point x="308" y="329"/>
      <point x="400" y="427"/>
      <point x="400" y="493" type="qcurve" smooth="yes"/>
      <point x="400" y="515" type="line" smooth="yes"/>
      <point x="400" y="581"/>
      <point x="308" y="679"/>
      <point x="236" y="679" type="qcurve" smooth="yes"/>
      <point x="164" y="679"/>
      <point x="72" y="581"/>
      <point x="72" y="515" type="qcurve" smooth="yes"/>
      <point x="72" y="493" type="line" smooth="yes"/>
      <point x="72" y="427"/>
      <point x="164" y="329"/>
    </contour>
    <contour>
      <point x="236" y="298" type="qcurve" smooth="yes"/>
      <point x="152" y="298"/>
      <point x="96" y="357" type="qcurve"/>
      <point x="38" y="414"/>
      <point x="38" y="504" type="qcurve" smooth="yes"/>
      <point x="38" y="594"/>
      <point x="152" y="710"/>
      <point x="236" y="710" type="qcurve" smooth="yes"/>
      <point x="320" y="710"/>
      <point x="434" y="594"/>
      <point x="434" y="504" type="qcurve" smooth="yes"/>
      <point x="434" y="414"/>
      <point x="320" y="298"/>
    </contour>
  </outline>
</glyph>
<glyph name="Adieresis" format="2">
  <advance width="625"/>
  <unicode hex="00C4"/>
  <outline>
    <contour>
      <point x="313" y="641" type="line"/>
      <point x="309" y="641" type="line"/>
      <point x="178" y="269" type="line"/>
      <point x="444" y="269" type="line"/>
    </contour>
    <contour>
      <point x="536" y="0" type="line"/>
      <point x="460" y="217" type="line"/>
      <point x="163" y="217" type="line"/>
      <point x="87" y="0" type="line"/>
      <point x="27" y="0" type="line"/>
      <point x="274" y="698" type="line"/>
      <point x="351" y="698" type="line"/>
      <point x="599" y="0" type="line"/>
    </contour>
    <contour>
      <point x="221" y="800" type="qcurve" smooth="yes"/>
      <point x="200" y="800"/>
      <point x="181" y="821"/>
      <point x="181" y="837" type="qcurve" smooth="yes"/>
      <point x="181" y="847" type="line" smooth="yes"/>
      <point x="181" y="863"/>
      <point x="200" y="884"/>
      <point x="221" y="884" type="qcurve" smooth="yes"/>
      <point x="241" y="884"/>
      <point x="260" y="863"/>
      <point x="260" y="847" type="qcurve" smooth="yes"/>
      <point x="260" y="837" type="line" smooth="yes"/>
      <point x="260" y="821"/>
      <point x="241" y="800"/>
    </contour>
    <contour>
      <point x="405" y="800" type="qcurve" smooth="yes"/>
      <point x="385" y="800"/>
      <point x="366" y="821"/>
      <point x="366" y="837" type="qcurve" smooth="yes"/>
      <point x="366" y="847" type="line" smooth="yes"/>
      <point x="366" y="863"/>
      <point x="385" y="884"/>
      <point x="405" y="884" type="qcurve" smooth="yes"/>
      <point x="426" y="884"/>
      <point x="445" y="863"/>
      <point x="445" y="847" type="qcurve" smooth="yes"/>
      <point x="445" y="837" type="line" smooth="yes"/>
      <point x="445" y="821"/>
      <point x="426" y="800"/>
    </contour>
  </outline>
</glyph>
<glyph name="Aring" format="2">
  <advance width="625"/>
  <unicode hex="00C5"/>
  <outline>
    <contour>
      <point x="313" y="641" type="line"/>
      <point x="309" y="641" type="line"/>
      <point x="178" y="269" type="line"/>
      <point x="444" y="269" type="line"/>
    </contour>
    <contour>
      <point x="313" y="792" type="qcurve"/>
      <point x="376" y="797"/>
      <point x="376" y="852" type="qcurve" smooth="yes"/>
      <point x="376" y="869" type="line"/>
      <point x="372" y="929"/>
      <point x="313" y="929" type="qcurve" smooth="yes"/>
      <point x="250" y="928"/>
      <point x="250" y="869" type="qcurve" smooth="yes"/>
      <point x="250" y="852" type="line"/>
      <point x="255" y="792"/>
    </contour>
    <contour>
      <point x="536" y="0" type="line"/>
      <point x="460" y="217" type="line"/>
      <point x="163" y="217" type="line"/>
      <point x="87" y="0" type="line"/>
      <point x="27" y="0" type="line"/>
      <point x="274" y="698" type="line"/>
      <point x="351" y="698" type="line"/>
      <point x="599" y="0" type="line"/>
    </contour>
    <contour>
      <point x="313" y="755" type="qcurve" smooth="yes"/>
      <point x="267" y="755"/>
      <point x="207" y="814"/>
      <point x="207" y="861" type="qcurve" smooth="yes"/>
      <point x="207" y="907"/>
      <point x="267" y="966"/>
      <point x="313" y="966" type="qcurve" smooth="yes"/>
      <point x="359" y="966"/>
      <point x="419" y="907"/>
      <point x="419" y="861" type="qcurve" smooth="yes"/>
      <point x="419" y="814"/>
      <point x="359" y="755"/>
    </contour>
  </outline>
</glyph>
<glyph name="Edieresis" format="2">
  <advance width="574"/>
  <unicode hex="00CB"/>
  <outline>
    <contour>
      <point x="99" y="0" type="line"/>
      <point x="99" y="698" type="line"/>
      <point x="507" y="698" type="line"/>
      <point x="507" y="645" type="line"/>
      <point x="159" y="645" type="line"/>
      <point x="159" y="381" type="line"/>
      <point x="490" y="381" type="line"/>
      <point x="490" y="328" type="line"/>
      <point x="159" y="328" type="line"/>
      <point x="159" y="53" type="line"/>
      <point x="507" y="53" type="line"/>
      <point x="507" y="0" type="line"/>
    </contour>
    <contour>
      <point x="210" y="800" type="qcurve" smooth="yes"/>
      <point x="189" y="800"/>
      <point x="170" y="821"/>
      <point x="170" y="837" type="qcurve" smooth="yes"/>
      <point x="170" y="847" type="line" smooth="yes"/>
      <point x="170" y="863"/>
      <point x="189" y="884"/>
      <point x="210" y="884" type="qcurve" smooth="yes"/>
      <point x="230" y="884"/>
      <point x="249" y="863"/>
      <point x="249" y="847" type="qcurve" smooth="yes"/>
      <point x="249" y="837" type="line" smooth="yes"/>
      <point x="249" y="821"/>
      <point x="230" y="800"/>
    </contour>
    <contour>
      <point x="394" y="800" type="qcurve" smooth="yes"/>
      <point x="374" y="800"/>
      <point x="355" y="821"/>
      <point x="355" y="837" type="qcurve" smooth="yes"/>
      <point x="355" y="847" type="line" smooth="yes"/>
      <point x="355" y="863"/>
      <point x="374" y="884"/>
      <point x="394" y="884" type="qcurve" smooth="yes"/>
      <point x="415" y="884"/>
      <point x="434" y="863"/>
      <point x="434" y="847" type="qcurve" smooth="yes"/>
      <point x="434" y="837" type="line" smooth="yes"/>
      <point x="434" y="821"/>
      <point x="415" y="800"/>
    </contour>
  </outline>
</glyph>
<glyph name="Ntilde" format="2">
  <advance width="701"/>
  <unicode hex="00D1"/>
  <outline>
    <contour>
      <point x="527" y="0" type="line"/>
      <point x="160" y="616" type="line"/>
      <point x="157" y="616" type="line"/>
      <point x="157" y="0" type="line"/>
      <point x="99" y="0" type="line"/>
      <point x="99" y="698" type="line"/>
      <point x="174" y="698" type="line"/>
      <point x="541" y="82" type="line"/>
      <point x="544" y="82" type="line"/>
      <point x="544" y="698" type="line"/>
      <point x="602" y="698" type="line"/>
      <point x="602" y="0" type="line"/>
    </contour>
    <contour>
      <point x="422" y="792" type="qcurve" smooth="yes"/>
      <point x="400" y="792"/>
      <point x="364" y="808"/>
      <point x="343" y="820" type="qcurve"/>
      <point x="304" y="844"/>
      <point x="275" y="844" type="qcurve" smooth="yes"/>
      <point x="241" y="844"/>
      <point x="214" y="815" type="qcurve"/>
      <point x="189" y="844" type="line"/>
      <point x="225" y="892"/>
      <point x="278" y="892" type="qcurve" smooth="yes"/>
      <point x="300" y="892"/>
      <point x="336" y="876"/>
      <point x="357" y="864" type="qcurve" smooth="yes"/>
      <point x="397" y="840"/>
      <point x="425" y="840" type="qcurve" smooth="yes"/>
      <point x="460" y="840"/>
      <point x="486" y="869" type="qcurve"/>
      <point x="511" y="840" type="line"/>
      <point x="475" y="792"/>
    </contour>
  </outline>
</glyph>
<glyph name="Udieresis" format="2">
  <advance width="668"/>
  <unicode hex="00DC"/>
  <outline>
    <contour>
      <point x="332" y="-12" type="qcurve" smooth="yes"/>
      <point x="199" y="-12"/>
      <point x="93" y="126"/>
      <point x="93" y="280" type="qcurve" smooth="yes"/>
      <point x="93" y="698" type="line"/>
      <point x="153" y="698" type="line"/>
      <point x="153" y="267" type="line" smooth="yes"/>
      <point x="153" y="152"/>
      <point x="232" y="42"/>
      <point x="334" y="42" type="qcurve" smooth="yes"/>
      <point x="436" y="42"/>
      <point x="515" y="152"/>
      <point x="515" y="267" type="qcurve" smooth="yes"/>
      <point x="515" y="698" type="line"/>
      <point x="575" y="698" type="line"/>
      <point x="575" y="280" type="line" smooth="yes"/>
      <point x="575" y="126"/>
      <point x="466" y="-12"/>
    </contour>
    <contour>
      <point x="240" y="800" type="qcurve" smooth="yes"/>
      <point x="219" y="800"/>
      <point x="200" y="821"/>
      <point x="200" y="837" type="qcurve" smooth="yes"/>
      <point x="200" y="847" type="line" smooth="yes"/>
      <point x="200" y="863"/>
      <point x="219" y="884"/>
      <point x="240" y="884" type="qcurve" smooth="yes"/>
      <point x="260" y="884"/>
      <point x="279" y="863"/>
      <point x="279" y="847" type="qcurve" smooth="yes"/>
      <point x="279" y="837" type="line" smooth="yes"/>
      <point x="279" y="821"/>
      <point x="260" y="800"/>
    </contour>
    <contour>
      <point x="424" y="800" type="qcurve" smooth="yes"/>
      <point x="404" y="800"/>
      <point x="385" y="821"/>
      <point x="385" y="837" type="qcurve" smooth="yes"/>
      <point x="385" y="847" type="line" smooth="yes"/>
      <point x="385" y="863"/>
      <point x="404" y="884"/>
      <point x="424" y="884" type="qcurve" smooth="yes"/>
      <point x="445" y="884"/>
      <point x="464" y="863"/>
      <point x="464" y="847" type="qcurve" smooth="yes"/>
      <point x="464" y="837" type="line" smooth="yes"/>
      <point x="464" y="821"/>
      <point x="445" y="800"/>
    </contour>
  </outline>
</glyph>
<glyph name="eth" format="2">
  <advance width="551"/>
  <unicode hex="00F0"/>
  <outline>
    <contour>
      <point x="274" y="37" type="qcurve" smooth="yes"/>
      <point x="346" y="37"/>
      <point x="434" y="133"/>
      <point x="434" y="215" type="qcurve" smooth="yes"/>
      <point x="434" y="275" type="line" smooth="yes"/>
      <point x="434" y="358"/>
      <point x="346" y="453"/>
      <point x="274" y="453" type="qcurve" smooth="yes"/>
      <point x="202" y="453"/>
      <point x="114" y="358"/>
      <point x="114" y="275" type="qcurve" smooth="yes"/>
      <point x="114" y="215" type="line" smooth="yes"/>
      <point x="114" y="133"/>
      <point x="202" y="37"/>
    </contour>
    <contour>
      <point x="274" y="-12" type="qcurve" smooth="yes"/>
      <point x="172" y="-12"/>
      <point x="52" y="129"/>
      <point x="52" y="247" type="qcurve" smooth="yes"/>
      <point x="52" y="363"/>
      <point x="172" y="502"/>
      <point x="274" y="502" type="qcurve" smooth="yes"/>
      <point x="375" y="502"/>
      <point x="417" y="414" type="qcurve"/>
      <point x="421" y="416" type="line"/>
      <point x="382" y="541"/>
      <point x="282" y="629" type="qcurve"/>
      <point x="192" y="564" type="line"/>
      <point x="169" y="595" type="line"/>
      <point x="253" y="655" type="line"/>
      <point x="196" y="703"/>
      <point x="129" y="740" type="qcurve"/>
      <point x="218" y="740" type="line"/>
      <point x="255" y="719"/>
      <point x="293" y="684" type="qcurve"/>
      <point x="389" y="753" type="line"/>
      <point x="413" y="722" type="line"/>
      <point x="323" y="658" type="line"/>
      <point x="392" y="594"/>
      <point x="442" y="493" type="qcurve" smooth="yes"/>
      <point x="495" y="383"/>
      <point x="495" y="262" type="qcurve" smooth="yes"/>
      <point x="495" y="129"/>
      <point x="372" y="-12"/>
    </contour>
  </outline>
</glyph>
<glyph name="ccircumflex" format="2">
  <advance width="497"/>
  <unicode hex="0109"/>
  <outline>
    <contour>
      <point x="273" y="-12" type="qcurve" smooth="yes"/>
      <point x="167" y="-12"/>
      <point x="52" y="128"/>
      <point x="52" y="256" type="qcurve" smooth="yes"/>
      <point x="52" y="384"/>
      <point x="167" y="524"/>
      <point x="273" y="524" type="qcurve" smooth="yes"/>
      <point x="405" y="524"/>
      <point x="455" y="411" type="qcurve"/>
      <point x="407" y="387" type="line"/>
      <point x="371" y="473"/>
      <point x="273" y="473" type="qcurve" smooth="yes"/>
      <point x="195" y="473"/>
      <point x="113" y="373"/>
      <point x="113" y="292" type="qcurve" smooth="yes"/>
      <point x="113" y="220" type="line" smooth="yes"/>
      <point x="113" y="139"/>
      <point x="195" y="39"/>
      <point x="273" y="39" type="qcurve" smooth="yes"/>
      <point x="375" y="39"/>
      <point x="420" y="128" type="qcurve"/>
      <point x="462" y="100" type="line"/>
      <point x="409" y="-12"/>
    </contour>
    <contour>
      <point x="275" y="715" type="line"/>
      <point x="154" y="594" type="line"/>
      <point x="122" y="617" type="line"/>
      <point x="240" y="756" type="line"/>
      <point x="310" y="756" type="line"/>
      <point x="428" y="617" type="line"/>
      <point x="396" y="594" type="line"/>
    </contour>
  </outline>
</glyph>
<glyph name="Emacron" format="2">
  <advance width="574"/>
  <unicode hex="0112"/>
  <outline>
    <contour>
      <point x="99" y="0" type="line"/>
      <point x="99" y="698" type="line"/>
      <point x="507" y="698" type="line"/>
      <point x="507" y="645" type="line"/>
      <point x="159" y="645" type="line"/>
      <point x="159" y="381" type="line"/>
      <point x="490" y="381" type="line"/>
      <point x="490" y="328" type="line"/>
      <point x="159" y="328" type="line"/>
      <point x="159" y="53" type="line"/>
      <point x="507" y="53" type="line"/>
      <point x="507" y="0" type="line"/>
    </contour>
    <contour>
      <point x="166" y="819" type="line"/>
      <point x="166" y="868" type="line"/>
      <point x="438" y="868" type="line"/>
      <point x="438" y="819" type="line"/>
    </contour>
  </outline>
</glyph>
<glyph name="ebreve" format="2">
  <advance width="543"/>
  <unicode hex="0115"/>
  <outline>
    <contour>
      <point x="429" y="297" type="line" smooth="yes"/>
      <point x="429" y="377"/>
      <point x="387" y="427" type="qcurve"/>
      <point x="343" y="476"/>
      <point x="275" y="476" type="qcurve" smooth="yes"/>
      <point x="202" y="476"/>
      <point x="112" y="374"/>
      <point x="112" y="289" type="qcurve"/>
      <point x="429" y="289" type="line"/>
    </contour>
    <contour>
      <point x="276" y="-12" type="qcurve" smooth="yes"/>
      <point x="174" y="-12"/>
      <point x="52" y="130"/>
      <point x="52" y="256" type="qcurve" smooth="yes"/>
      <point x="52" y="382"/>
      <point x="173" y="524"/>
      <point x="275" y="524" type="qcurve" smooth="yes"/>
      <point x="373" y="524"/>
      <point x="491" y="385"/>
      <point x="491" y="272" type="qcurve" smooth="yes"/>
      <point x="491" y="245" type="line"/>
      <point x="112" y="245" type="line"/>
      <point x="112" y="220" type="line" smooth="yes"/>
      <point x="112" y="141"/>
      <point x="201" y="38"/>
      <point x="279" y="38" type="qcurve" smooth="yes"/>
      <point x="392" y="38"/>
      <point x="434" y="141" type="qcurve"/>
      <point x="476" y="113" type="line"/>
      <point x="452" y="55"/>
      <point x="349" y="-12"/>
    </contour>
    <contour>
      <point x="276" y="600" type="qcurve" smooth="yes"/>
      <point x="213" y="600"/>
      <point x="149" y="674"/>
      <point x="132" y="722" type="qcurve"/>
      <point x="165" y="738" type="line"/>
      <point x="184" y="707" type="line"/>
      <point x="202" y="675"/>
      <point x="240" y="646"/>
      <point x="276" y="646" type="qcurve" smooth="yes"/>
      <point x="312" y="646"/>
      <point x="350" y="675"/>
      <point x="368" y="707" type="qcurve"/>
      <point x="387" y="738" type="line"/>
      <point x="420" y="722" type="line"/>
      <point x="389" y="634"/>
      <point x="334" y="610" type="qcurve" smooth="yes"/>
      <point x="310" y="600"/>
    </contour>
  </outline>
</glyph>
<glyph name="Edotaccent" format="2">
  <advance width="574"/>
  <unicode hex="0116"/>
  <outline>
    <contour>
      <point x="99" y="0" type="line"/>
      <point x="99" y="698" type="line"/>
      <point x="507" y="698" type="line"/>
      <point x="507" y="645" type="line"/>
      <point x="159" y="645" type="line"/>
      <point x="159" y="381" type="line"/>
      <point x="490" y="381" type="line"/>
      <point x="490" y="328" type="line"/>
      <point x="159" y="328" type="line"/>
      <point x="159" y="53" type="line"/>
      <point x="507" y="53" type="line"/>
      <point x="507" y="0" type="line"/>
    </contour>
    <contour>
      <point x="302" y="796" type="qcurve" smooth="yes"/>
      <point x="259" y="796"/>
      <point x="259" y="837" type="qcurve" smooth="yes"/>
      <point x="259" y="848" type="line" smooth="yes"/>
      <point x="259" y="889"/>
      <point x="302" y="889" type="qcurve" smooth="yes"/>
      <point x="345" y="889"/>
      <point x="345" y="848" type="qcurve" smooth="yes"/>
      <point x="345" y="837" type="line" smooth="yes"/>
      <point x="345" y="796"/>
    </contour>
  </outline>
</glyph>
<glyph name="eogonek" format="2">
  <advance width="543"/>
  <unicode hex="0119"/>
  <outline>
    <contour>
      <point x="429" y="297" type="line" smooth="yes"/>
      <point x="429" y="377"/>
      <point x="387" y="427" type="qcurve"/>
      <point x="343" y="476"/>
      <point x="275" y="476" type="qcurve" smooth="yes"/>
      <point x="202" y="476"/>
      <point x="112" y="374"/>
      <point x="112" y="289" type="qcurve"/>
      <point x="429" y="289" type="line"/>
    </contour>
    <contour>
      <point x="339" y="-205" type="qcurve" smooth="yes"/>
      <point x="302" y="-205"/>
      <point x="251" y="-169"/>
      <point x="251" y="-131" type="qcurve" smooth="yes"/>
      <point x="251" y="-93"/>
      <point x="304" y="-30"/>
      <point x="349" y="-3" type="qcurve"/>
      <point x="346" y="1" type="line"/>
      <point x="323" y="-12"/>
      <point x="276" y="-12" type="qcurve" smooth="yes"/>
      <point x="174" y="-12"/>
      <point x="52" y="130"/>
      <point x="52" y="256" type="qcurve" smooth="yes"/>
      <point x="52" y="382"/>
      <point x="173" y="524"/>
      <point x="275" y="524" type="qcurve" smooth="yes"/>
      <point x="373" y="524"/>
      <point x="491" y="385"/>
      <point x="491" y="272" type="qcurve" smooth="yes"/>
      <point x="491" y="245" type="line"/>
      <point x="112" y="245" type="line"/>
      <point x="112" y="220" type="line" smooth="yes"/>
      <point x="112" y="141"/>
      <point x="201" y="38"/>
      <point x="279" y="38" type="qcurve" smooth="yes"/>
      <point x="392" y="38"/>
      <point x="434" y="141" type="qcurve"/>
      <point x="476" y="113" type="line"/>
      <point x="456" y="67"/>
      <point x="421" y="38" type="qcurve"/>
      <point x="365" y="-12"/>
      <point x="339" y="-41" type="qcurve" smooth="yes"/>
      <point x="298" y="-86"/>
      <point x="298" y="-125" type="qcurve" smooth="yes"/>
      <point x="298" y="-165"/>
      <point x="340" y="-165" type="qcurve" smooth="yes"/>
      <point x="376" y="-165"/>
      <point x="393" y="-141" type="qcurve"/>
      <point x="422" y="-169" type="line"/>
      <point x="413" y="-184"/>
      <point x="371" y="-205"/>
    </contour>
  </outline>
</glyph>
<glyph name="Hbar" format="2">
  <advance width="707"/>
  <unicode hex="0126"/>
  <outline>
    <contour>
      <point x="545" y="526" type="line"/>
      <point x="162" y="526" type="line"/>
      <point x="162" y="381" type="line"/>
      <point x="545" y="381" type="line"/>
    </contour>
    <contour>
      <point x="545" y="0" type="line"/>
      <point x="545" y="328" type="line"/>
      <point x="162" y="328" type="line"/>
      <point x="162" y="0" type="line"/>
      <point x="102" y="0" type="line"/>
      <point x="102" y="526" type="line"/>
      <point x="27" y="526" type="line"/>
      <point x="27" y="572" type="line"/>
      <point x="102" y="572" type="line"/>
      <point x="102" y="698" type="line"/>
      <point x="162" y="698" type="line"/>
      <point x="162" y="572" type="line"/>
      <point x="545" y="572" type="line"/>
      <point x="545" y="698" type="line"/>
      <point x="605" y="698" type="line"/>
      <point x="605" y="572" type="line"/>
      <point x="680" y="572" type="line"/>
      <point x="680" y="526" type="line"/>
      <point x="605" y="526" type="line"/>
      <point x="605" y="0" type="line"/>
    </contour>
  </outline>
</glyph>
<glyph name="dotlessi" format="2">
  <advance width="243"/>
  <unicode hex="0131"/>
  <outline>
    <contour>
      <point x="93" y="0" type="line"/>
      <point x="93" y="512" type="line"/>
      <point x="150" y="512" type="line"/>
      <point x="150" y="0" type="line"/>
    </contour>
  </outline>
</glyph>
<glyph name="Jcircumflex" format="2">
  <advance width="492"/>
  <unicode hex="0134"/>
  <outline>
    <contour>
      <point x="210" y="-12" type="qcurve" smooth="yes"/>
      <point x="136" y="-12"/>
      <point x="41" y="67"/>
      <point x="26" y="134" type="qcurve"/>
      <point x="79" y="147" type="line"/>
      <point x="91" y="100"/>
      <point x="156" y="41"/>
      <point x="212" y="41" type="qcurve" smooth="yes"/>
      <point x="338" y="41"/>
      <point x="339" y="191" type="qcurve"/>
      <point x="339" y="698" type="line"/>
      <point x="399" y="698" type="line"/>
      <point x="399" y="182" type="line" smooth="yes"/>
      <point x="399" y="89"/>
      <point x="296" y="-12"/>
    </contour>
    <contour>
      <point x="373" y="768" type="line"/>
      <point x="252" y="888" type="line"/>
      <point x="131" y="768" type="line"/>
      <point x="99" y="791" type="line"/>
      <point x="217" y="930" type="line"/>
      <point x="287" y="930" type="line"/>
      <point x="405" y="791" type="line"/>
    </contour>
  </outline>
</glyph>
<glyph name="kcommaaccent" format="2">
  <advance width="513"/>
  <unicode hex="0137"/>
  <outline>
    <contour>
      <point x="227" y="-232" type="line"/>
      <point x="266" y="-190"/>
      <point x="275" y="-147" type="qcurve"/>
      <point x="243" y="-140"/>
      <point x="243" y="-112" type="qcurve" smooth="yes"/>
      <point x="243" y="-103" type="line" smooth="yes"/>
      <point x="243" y="-66"/>
      <point x="285" y="-66" type="qcurve" smooth="yes"/>
      <point x="323" y="-66"/>
      <point x="323" y="-103" type="qcurve" smooth="yes"/>
      <point x="323" y="-114" type="line" smooth="yes"/>
      <point x="323" y="-178"/>
      <point x="269" y="-232" type="qcurve"/>
    </contour>
    <contour>
      <point x="425" y="0" type="line"/>
      <point x="231" y="268" type="line"/>
      <point x="150" y="186" type="line"/>
      <point x="150" y="0" type="line"/>
      <point x="93" y="0" type="line"/>
      <point x="93" y="740" type="line"/>
      <point x="150" y="740" type="line"/>
      <point x="150" y="251" type="line"/>
      <point x="153" y="251" type="line"/>
      <point x="277" y="382"/>
      <point x="403" y="512" type="qcurve"/>
      <point x="473" y="512" type="line"/>
      <point x="272" y="304" type="line"/>
      <point x="495" y="0" type="line"/>
    </contour>
  </outline>
</glyph>
<glyph name="Ldot" format="2">
  <advance width="491"/>
  <unicode hex="013F"/>
  <outline>
    <contour>
      <point x="375" y="284" type="qcurve" smooth="yes"/>
      <point x="355" y="284"/>
      <point x="335" y="304"/>
      <point x="335" y="320" type="qcurve" smooth="yes"/>
      <point x="335" y="330" type="line" smooth="yes"/>
      <point x="335" y="366"/>
      <point x="375" y="366" type="qcurve" smooth="yes"/>
      <point x="395" y="366"/>
      <point x="415" y="346"/>
      <point x="415" y="330" type="qcurve" smooth="yes"/>
      <point x="415" y="318" type="line" smooth="yes"/>
      <point x="415" y="284"/>
    </contour>
    <contour>
      <point x="99" y="0" type="line"/>
      <point x="99" y="698" type="line"/>
      <point x="159" y="698" type="line"/>
      <point x="159" y="53" type="line"/>
      <point x="467" y="53" type="line"/>
      <point x="467" y="0" type="line"/>
    </contour>
  </outline>
</glyph>
<glyph name="ldot" format="2">
  <advance width="326"/>
  <unicode hex="0140"/>
  <outline>
    <contour>
      <point x="284" y="248" type="qcurve" smooth="yes"/>
      <point x="264" y="248"/>
      <point x="244" y="268"/>
      <point x="244" y="284" type="qcurve" smooth="yes"/>
      <point x="244" y="294" type="line" smooth="yes"/>
      <point x="244" y="330"/>
      <point x="284" y="330" type="qcurve" smooth="yes"/>
      <point x="304" y="330"/>
      <point x="324" y="310"/>
      <point x="324" y="294" type="qcurve" smooth="yes"/>
      <point x="324" y="282" type="line" smooth="yes"/>
      <point x="324" y="248"/>
    </contour>
    <contour>
      <point x="156" y="0" type="line" smooth="yes"/>
      <point x="125" y="0"/>
      <point x="93" y="34"/>
      <point x="93" y="62" type="qcurve" smooth="yes"/>
      <point x="93" y="740" type="line"/>
      <point x="150" y="740" type="line"/>
      <point x="150" y="50" type="line"/>
      <point x="229" y="50" type="line"/>
      <point x="229" y="0" type="line"/>
    </contour>
  </outline>
</glyph>
<glyph name="Utilde" format="2">
  <advance width="668"/>
  <unicode hex="0168"/>
  <outline>
    <contour>
      <point x="332" y="-12" type="qcurve" smooth="yes"/>
      <point x="199" y="-12"/>
      <point x="93" y="126"/>
      <point x="93" y="280" type="qcurve" smooth="yes"/>
      <point x="93" y="698" type="line"/>
      <point x="153" y="698" type="line"/>
      <point x="153" y="267" type="line" smooth="yes"/>
      <point x="153" y="152"/>
      <point x="232" y="42"/>
      <point x="334" y="42" type="qcurve" smooth="yes"/>
      <point x="436" y="42"/>
      <point x="515" y="152"/>
      <point x="515" y="267" type="qcurve" smooth="yes"/>
      <point x="515" y="698" type="line"/>
      <point x="575" y="698" type="line"/>
      <point x="575" y="280" type="line" smooth="yes"/>
      <point x="575" y="126"/>
      <point x="466" y="-12"/>
    </contour>
    <contour>
      <point x="404" y="792" type="qcurve" smooth="yes"/>
      <point x="382" y="792"/>
      <point x="346" y="808"/>
      <point x="325" y="820" type="qcurve"/>
      <point x="286" y="844"/>
      <point x="257" y="844" type="qcurve" smooth="yes"/>
      <point x="223" y="844"/>
      <point x="196" y="815" type="qcurve"/>
      <point x="171" y="844" type="line"/>
      <point x="207" y="892"/>
      <point x="260" y="892" type="qcurve" smooth="yes"/>
      <point x="282" y="892"/>
      <point x="318" y="876"/>
      <point x="339" y="864" type="qcurve" smooth="yes"/>
      <point x="379" y="840"/>
      <point x="407" y="840" type="qcurve" smooth="yes"/>
      <point x="442" y="840"/>
      <point x="468" y="869" type="qcurve"/>
      <point x="493" y="840" type="line"/>
      <point x="457" y="792"/>
    </contour>
  </outline>
</glyph>
<glyph name="Uring" format="2">
  <advance width="668"/>
  <unicode hex="016E"/>
  <outline>
    <contour>
      <point x="332" y="792" type="qcurve"/>
      <point x="395" y="797"/>
      <point x="395" y="852" type="qcurve" smooth="yes"/>
      <point x="395" y="869" type="line"/>
      <point x="391" y="929"/>
      <point x="332" y="929" type="qcurve" smooth="yes"/>
      <point x="269" y="928"/>
      <point x="269" y="869" type="qcurve" smooth="yes"/>
      <point x="269" y="852" type="line"/>
      <point x="274" y="792"/>
    </contour>
    <contour>
      <point x="332" y="-12" type="qcurve" smooth="yes"/>
      <point x="199" y="-12"/>
      <point x="93" y="126"/>
      <point x="93" y="280" type="qcurve" smooth="yes"/>
      <point x="93" y="698" type="line"/>
      <point x="153" y="698" type="line"/>
      <point x="153" y="267" type="line" smooth="yes"/>
      <point x="153" y="152"/>
      <point x="232" y="42"/>
      <point x="334" y="42" type="qcurve" smooth="yes"/>
      <point x="436" y="42"/>
      <point x="515" y="152"/>
      <point x="515" y="267" type="qcurve" smooth="yes"/>
      <point x="515" y="698" type="line"/>
      <point x="575" y="698" type="line"/>
      <point x="575" y="280" type="line" smooth="yes"/>
      <point x="575" y="126"/>
      <point x="466" y="-12"/>
    </contour>
    <contour>
      <point x="332" y="755" type="qcurve" smooth="yes"/>
      <point x="286" y="755"/>
      <point x="226" y="814"/>
      <point x="226" y="861" type="qcurve" smooth="yes"/>
      <point x="226" y="907"/>
      <point x="286" y="966"/>
      <point x="332" y="966" type="qcurve" smooth="yes"/>
      <point x="378" y="966"/>
      <point x="438" y="907"/>
      <point x="438" y="861" type="qcurve" smooth="yes"/>
      <point x="438" y="814"/>
      <point x="378" y="755"/>
    </contour>
  </outline>
</glyph>
<glyph name="Wcircumflex" format="2">
  <advance width="884"/>
  <unicode hex="0174"/>
  <outline>
    <contour>
      <point x="608" y="0" type="line"/>
      <point x="441" y="631" type="line"/>
      <point x="439" y="631" type="line"/>
      <point x="270" y="0" type="line"/>
      <point x="200" y="0" type="line"/>
      <point x="24" y="698" type="line"/>
      <point x="88" y="698" type="line"/>
      <point x="237" y="74" type="line"/>
      <point x="240" y="74" type="line"/>
      <point x="405" y="698" type="line"/>
      <point x="478" y="698" type="line"/>
      <point x="641" y="74" type="line"/>
      <point x="644" y="74" type="line"/>
      <point x="798" y="698" type="line"/>
      <point x="860" y="698" type="line"/>
      <point x="678" y="0" type="line"/>
    </contour>
    <contour>
      <point x="441" y="888" type="line"/>
      <point x="320" y="768" type="line"/>
      <point x="288" y="791" type="line"/>
      <point x="406" y="930" type="line"/>
      <point x="476" y="930" type="line"/>
      <point x="594" y="791" type="line"/>
      <point x="562" y="768" type="line"/>
    </contour>
  </outline>
</glyph>
<glyph name="wcircumflex" format="2">
  <advance width="751"/>
  <unicode hex="0175"/>
  <outline>
    <contour>
      <point x="505" y="0" type="line"/>
      <point x="376" y="431" type="line"/>
      <point x="374" y="431" type="line"/>
      <point x="246" y="0" type="line"/>
      <point x="177" y="0" type="line"/>
      <point x="33" y="512" type="line"/>
      <point x="89" y="512" type="line"/>
      <point x="212" y="51" type="line"/>
      <point x="214" y="51" type="line"/>
      <point x="350" y="512" type="line"/>
      <point x="403" y="512" type="line"/>
      <point x="540" y="51" type="line"/>
      <point x="542" y="51" type="line"/>
      <point x="664" y="512" type="line"/>
      <point x="719" y="512" type="line"/>
      <point x="575" y="0" type="line"/>
    </contour>
    <contour>
      <point x="376" y="715" type="line"/>
      <point x="255" y="594" type="line"/>
      <point x="223" y="617" type="line"/>
      <point x="341" y="756" type="line"/>
      <point x="411" y="756" type="line"/>
      <point x="529" y="617" type="line"/>
      <point x="497" y="594" type="line"/>
    </contour>
  </outline>
</glyph>
<glyph name="zcaron" format="2">
  <advance width="446"/>
  <unicode hex="017E"/>
  <outline>
    <contour>
      <point x="31" y="0" type="line"/>
      <point x="31" y="49" type="line"/>
      <point x="341" y="462" type="line"/>
      <point x="40" y="462" type="line"/>
      <point x="40" y="512" type="line"/>
      <point x="409" y="512" type="line"/>
      <point x="409" y="467" type="line"/>
      <point x="95" y="50" type="line"/>
      <point x="417" y="50" type="line"/>
      <point x="417" y="0" type="line"/>
    </contour>
    <contour>
      <point x="189" y="601" type="line"/>
      <point x="71" y="740" type="line"/>
      <point x="103" y="763" type="line"/>
      <point x="224" y="642" type="line"/>
      <point x="345" y="763" type="line"/>
      <point x="377" y="740" type="line"/>
      <point x="259" y="601" type="line"/>
    </contour>
  </outline>
</glyph>
<glyph name="gravecomb" format="2">
  <unicode hex="0300"/>
  <outline>
    <contour>
      <point x="-106" y="742" type="line"/>
      <point x="-54" y="768" type="line"/>
      <point x="41" y="604" type="line"/>
      <point x="3" y="586" type="line"/>
    </contour>
  </outline>
</glyph>
<glyph name="brevecomb" format="2">
  <unicode hex="0306"/>
  <outline>
    <contour>
      <point x="1" y="600" type="qcurve" smooth="yes"/>
      <point x="-62" y="600"/>
      <point x="-126" y="674"/>
      <point x="-143" y="722" type="qcurve"/>
      <point x="-110" y="738" type="line"/>
      <point x="-91" y="707" type="line"/>
      <point x="-73" y="675"/>
      <point x="-35" y="646"/>
      <point x="1" y="646" type="qcurve" smooth="yes"/>
      <point x="37" y="646"/>
      <point x="75" y="675"/>
      <point x="93" y="707" type="qcurve"/>
      <point x="112" y="738" type="line"/>
      <point x="145" y="722" type="line"/>
      <point x="114" y="634"/>
      <point x="59" y="610" type="qcurve" smooth="yes"/>
      <point x="35" y="600"/>
    </contour>
  </outline>
</glyph>
<glyph name="Omicrontonos" format="2">
  <advance width="700"/>
  <unicode hex="038C"/>
  <outline>
    <contour>
      <point x="351" y="42" type="qcurve" smooth="yes"/>
      <point x="401" y="42"/>
      <point x="482" y="77"/>
      <point x="540" y="145"/>
      <point x="572" y="243"/>
      <point x="572" y="305" type="qcurve" smooth="yes"/>
      <point x="572" y="393" type="line" smooth="yes"/>
      <point x="572" y="455"/>
      <point x="540" y="553"/>
      <point x="482" y="620"/>
      <point x="401" y="656"/>
      <point x="351" y="656" type="qcurve" smooth="yes"/>
      <point x="301" y="656"/>
      <point x="219" y="620"/>
      <point x="161" y="553"/>
      <point x="129" y="455"/>
      <point x="129" y="393" type="qcurve" smooth="yes"/>
      <point x="129" y="305" type="line" smooth="yes"/>
      <point x="129" y="243"/>
      <point x="161" y="145"/>
      <point x="219" y="77"/>
      <point x="301" y="42"/>
    </contour>
    <contour>
      <point x="351" y="-12" type="qcurve" smooth="yes"/>
      <point x="217" y="-12"/>
      <point x="65" y="171"/>
      <point x="65" y="349" type="qcurve" smooth="yes"/>
      <point x="65" y="527"/>
      <point x="217" y="710"/>
      <point x="351" y="710" type="qcurve" smooth="yes"/>
      <point x="484" y="710"/>
      <point x="636" y="526"/>
      <point x="636" y="349" type="qcurve" smooth="yes"/>
      <point x="636" y="172"/>
      <point x="484" y="-12"/>
    </contour>
    <contour>
      <point x="19" y="586" type="line"/>
      <point x="-22" y="592" type="line"/>
      <point x="22" y="769" type="line"/>
      <point x="79" y="759" type="line"/>
    </contour>
  </outline>
</glyph>
<glyph name="Theta" format="2">
  <advance width="697"/>
  <unicode hex="0398"/>
  <outline>
    <contour>
      <point x="193" y="327" type="line"/>
      <point x="193" y="380" type="line"/>
      <point x="504" y="380" type="line"/>
      <point x="504" y="327" type="line"/>
    </contour>
    <contour>
      <point x="349" y="42" type="qcurve" smooth="yes"/>
      <point x="399" y="42"/>
      <point x="480" y="77"/>
      <point x="538" y="145"/>
      <point x="570" y="243"/>
      <point x="570" y="305" type="qcurve" smooth="yes"/>
      <point x="570" y="393" type="line" smooth="yes"/>
      <point x="570" y="455"/>
      <point x="538" y="553"/>
      <point x="480" y="620"/>
      <point x="399" y="656"/>
      <point x="349" y="656" type="qcurve" smooth="yes"/>
      <point x="299" y="656"/>
      <point x="217" y="620"/>
      <point x="159" y="553"/>
      <point x="127" y="455"/>
      <point x="127" y="393" type="qcurve" smooth="yes"/>
      <point x="127" y="305" type="line" smooth="yes"/>
      <point x="127" y="243"/>
      <point x="159" y="145"/>
      <point x="217" y="77"/>
      <point x="299" y="42"/>
    </contour>
    <contour>
      <point x="349" y="-12" type="qcurve" smooth="yes"/>
      <point x="215" y="-12"/>
      <point x="63" y="171"/>
      <point x="63" y="349" type="qcurve" smooth="yes"/>
      <point x="63" y="527"/>
      <point x="215" y="710"/>
      <point x="349" y="710" type="qcurve" smooth="yes"/>
      <point x="482" y="710"/>
      <point x="634" y="526"/>
      <point x="634" y="349" type="qcurve" smooth="yes"/>
      <point x="634" y="172"/>
      <point x="482" y="-12"/>
    </contour>
  </outline>
</glyph>
<glyph name="Kappa" format="2">
  <advance width="610"/>
  <unicode hex="039A"/>
  <outline>
    <contour>
      <point x="272" y="360" type="line"/>
      <point x="159" y="235" type="line"/>
      <point x="159" y="0" type="line"/>
      <point x="99" y="0" type="line"/>
      <point x="99" y="698" type="line"/>
      <point x="159" y="698" type="line"/>
      <point x="159" y="305" type="line"/>
      <point x="161" y="305" type="line"/>
      <point x="503" y="698" type="line"/>
      <point x="576" y="698" type="line"/>
      <point x="313" y="401" type="line"/>
      <point x="589" y="0" type="line"/>
      <point x="515" y="0" type="line"/>
    </contour>
  </outline>
</glyph>
<glyph name="Xi" format="2">
  <advance width="573"/>
  <unicode hex="039E"/>
  <outline>
    <contour>
      <point x="67" y="53" type="line"/>
      <point x="506" y="53" type="line"/>
      <point x="506" y="0" type="line"/>
      <point x="67" y="0" type="line"/>
    </contour>
    <contour>
      <point x="67" y="698" type="line"/>
      <point x="506" y="698" type="line"/>
      <point x="506" y="645" type="line"/>
      <point x="67" y="645" type="line"/>
    </contour>
    <contour>
      <point x="104" y="381" type="line"/>
      <point x="469" y="381" type="line"/>
      <point x="469" y="328" type="line"/>
      <point x="104" y="328" type="line"/>
    </contour>
  </outline>
</glyph>
<glyph name="omicron" format="2">
  <advance width="550"/>
  <unicode hex="03BF"/>
  <outline>
    <contour>
      <point x="275" y="39" type="qcurve" smooth="yes"/>
      <point x="350" y="39"/>
      <point x="437" y="133"/>
      <point x="437" y="224" type="qcurve" smooth="yes"/>
      <point x="437" y="288" type="line" smooth="yes"/>
      <point x="437" y="378"/>
      <point x="350" y="473"/>
      <point x="275" y="473" type="qcurve" smooth="yes"/>
      <point x="200" y="473"/>
      <point x="113" y="379"/>
      <point x="113" y="288" type="qcurve" smooth="yes"/>
      <point x="113" y="224" type="line" smooth="yes"/>
      <point x="113" y="134"/>
      <point x="200" y="39"/>
    </contour>
    <contour>
      <point x="275" y="-12" type="qcurve" smooth="yes"/>
      <point x="224" y="-12"/>
      <point x="142" y="24"/>
      <point x="84" y="93"/>
      <point x="52" y="193"/>
      <point x="52" y="256" type="qcurve" smooth="yes"/>
      <point x="52" y="319"/>
      <point x="84" y="418"/>
      <point x="142" y="487"/>
      <point x="224" y="524"/>
      <point x="275" y="524" type="qcurve" smooth="yes"/>
      <point x="326" y="524"/>
      <point x="408" y="487"/>
      <point x="466" y="418"/>
      <point x="498" y="319"/>
      <point x="498" y="256" type="qcurve" smooth="yes"/>
      <point x="498" y="193"/>
      <point x="466" y="93"/>
      <point x="408" y="24"/>
      <point x="326" y="-12"/>
    </contour>
  </outline>
</glyph>
<glyph name="pi" format="2">
  <advance width="610"/>
  <unicode hex="03C0"/>
  <outline>
    <contour>
      <point x="471" y="50" type="line"/>
      <point x="539" y="50" type="line"/>
      <point x="539" y="0" type="line"/>
      <point x="477" y="0" type="line" smooth="yes"/>
      <point x="445" y="0"/>
      <point x="414" y="34"/>
      <point x="414" y="61" type="qcurve" smooth="yes"/>
      <point x="414" y="462" type="line"/>
      <point x="178" y="462" type="line"/>
      <point x="178" y="0" type="line"/>
      <point x="121" y="0" type="line"/>
      <point x="121" y="462" type="line"/>
      <point x="26" y="462" type="line"/>
      <point x="26" y="512" type="line"/>
      <point x="575" y="512" type="line"/>
      <point x="575" y="462" type="line"/>
      <point x="471" y="462" type="line"/>
    </contour>
  </outline>
</glyph>
<glyph name="chi" format="2">
  <advance width="481"/>
  <unicode hex="03C7"/>
  <outline>
    <contour>
      <point x="67" y="512" type="line" smooth="yes"/>
      <point x="93" y="512"/>
      <point x="120" y="494"/>
      <point x="131" y="470" type="qcurve" smooth="yes"/>
      <point x="241" y="217" type="line"/>
      <point x="244" y="217" type="line"/>
      <point x="394" y="512" type="line"/>
      <point x="456" y="512" type="line"/>
      <point x="274" y="168" type="line"/>
      <point x="411" y="-150" type="line"/>
      <point x="475" y="-150" type="line"/>
      <point x="475" y="-200" type="line"/>
      <point x="419" y="-200" type="line" smooth="yes"/>
      <point x="393" y="-200"/>
      <point x="365" y="-181"/>
      <point x="355" y="-158" type="qcurve" smooth="yes"/>
      <point x="239" y="117" type="line"/>
      <point x="237" y="117" type="line"/>
      <point x="81" y="-200" type="line"/>
      <point x="19" y="-200" type="line"/>
      <point x="206" y="165" type="line"/>
      <point x="75" y="462" type="line"/>
      <point x="11" y="462" type="line"/>
      <point x="11" y="512" type="line"/>
    </contour>
  </outline>
</glyph>
<glyph name="upsilondieresis" format="2">
  <advance width="560"/>
  <unicode hex="03CB"/>
  <outline>
    <contour>
      <point x="143" y="227" type="line" smooth="yes"/>
      <point x="143" y="126"/>
      <point x="209" y="39"/>
      <point x="280" y="39" type="qcurve" smooth="yes"/>
      <point x="350" y="39"/>
      <point x="417" y="126"/>
      <point x="417" y="227" type="qcurve" smooth="yes"/>
      <point x="417" y="512" type="line"/>
      <point x="474" y="512" type="line"/>
      <point x="474" y="239" type="line" smooth="yes"/>
      <point x="474" y="106"/>
      <point x="377" y="-12"/>
      <point x="280" y="-12" type="qcurve" smooth="yes"/>
      <point x="182" y="-12"/>
      <point x="86" y="106"/>
      <point x="86" y="239" type="qcurve" smooth="yes"/>
      <point x="86" y="512" type="line"/>
      <point x="143" y="512" type="line"/>
    </contour>
    <contour>
      <point x="189" y="627" type="qcurve" smooth="yes"/>
      <point x="168" y="627"/>
      <point x="150" y="647"/>
      <point x="150" y="663" type="qcurve" smooth="yes"/>
      <point x="150" y="673" type="line" smooth="yes"/>
      <point x="150" y="689"/>
      <point x="168" y="709"/>
      <point x="189" y="709" type="qcurve" smooth="yes"/>
      <point x="209" y="709"/>
      <point x="228" y="689"/>
      <point x="228" y="673" type="qcurve" smooth="yes"/>
      <point x="228" y="663" type="line" smooth="yes"/>
      <point x="228" y="647"/>
      <point x="209" y="627"/>
    </contour>
    <contour>
      <point x="373" y="627" type="qcurve" smooth="yes"/>
      <point x="353" y="627"/>
      <point x="334" y="647"/>
      <point x="334" y="663" type="qcurve" smooth="yes"/>
      <point x="334" y="673" type="line" smooth="yes"/>
      <point x="334" y="689"/>
      <point x="353" y="709"/>
      <point x="373" y="709" type="qcurve" smooth="yes"/>
      <point x="394" y="709"/>
      <point x="412" y="689"/>
      <point x="412" y="673" type="qcurve" smooth="yes"/>
      <point x="412" y="663" type="line" smooth="yes"/>
      <point x="412" y="647"/>
      <point x="394" y="627"/>
    </contour>
  </outline>
</glyph>
<glyph name="Vecyr" format="2">
  <advance width="638"/>
  <unicode hex="0412"/>
  <outline>
    <contour>
      <point x="381" y="53" type="line" smooth="yes"/>
      <point x="444" y="53"/>
      <point x="510" y="122"/>
      <point x="510" y="177" type="qcurve" smooth="yes"/>
      <point x="510" y="214" type="line" smooth="yes"/>
      <point x="510" y="268"/>
      <point x="444" y="337"/>
      <point x="381" y="337" type="qcurve" smooth="yes"/>
      <point x="159" y="337" type="line"/>
      <point x="159" y="53" type="line"/>
    </contour>
    <contour>
      <point x="366" y="389" type="line" smooth="yes"/>
      <point x="423" y="389"/>
      <point x="483" y="450"/>
      <point x="483" y="498" type="qcurve" smooth="yes"/>
      <point x="483" y="536" type="line" smooth="yes"/>
      <point x="483" y="584"/>
      <point x="423" y="645"/>
      <point x="366" y="645" type="qcurve" smooth="yes"/>
      <point x="159" y="645" type="line"/>
      <point x="159" y="389" type="line"/>
    </contour>
    <contour>
      <point x="99" y="0" type="line"/>
      <point x="99" y="698" type="line"/>
      <point x="372" y="698" type="line" smooth="yes"/>
      <point x="454" y="698"/>
      <point x="547" y="605"/>
      <point x="547" y="522" type="qcurve" smooth="yes"/>
      <point x="547" y="454"/>
      <point x="513" y="414" type="qcurve"/>
      <point x="480" y="378"/>
      <point x="440" y="370" type="qcurve"/>
      <point x="440" y="366" type="line"/>
      <point x="491" y="360"/>
      <point x="531" y="320" type="qcurve"/>
      <point x="574" y="273"/>
      <point x="574" y="197" type="qcurve" smooth="yes"/>
      <point x="574" y="112"/>
      <point x="477" y="0"/>
      <point x="397" y="0" type="qcurve" smooth="yes"/>
    </contour>
  </outline>
</glyph>
<glyph name="Tsecyr" format="2">
  <advance width="720"/>
  <unicode hex="0426"/>
  <outline>
    <contour>
      <point x="626" y="-150" type="line"/>
      <point x="626" y="0" type="line"/>
      <point x="99" y="0" type="line"/>
      <point x="99" y="698" type="line"/>
      <point x="159" y="698" type="line"/>
      <point x="159" y="53" type="line"/>
      <point x="527" y="53" type="line"/>
      <point x="527" y="698" type="line"/>
      <point x="587" y="698" type="line"/>
      <point x="587" y="53" type="line"/>
      <point x="681" y="53" type="line"/>
      <point x="681" y="-150" type="line"/>
    </contour>
  </outline>
</glyph>
<glyph name="Shchacyr" format="2">
  <advance width="970"/>
  <unicode hex="0429"/>
  <outline>
    <contour>
      <point x="875" y="-150" type="line"/>
      <point x="875" y="0" type="line"/>
      <point x="99" y="0" type="line"/>
      <point x="99" y="698" type="line"/>
      <point x="159" y="698" type="line"/>
      <point x="159" y="53" type="line"/>
      <point x="438" y="53" type="line"/>
      <point x="438" y="698" type="line"/>
      <point x="498" y="698" type="line"/>
      <point x="498" y="53" type="line"/>
      <point x="777" y="53" type="line"/>
      <point x="777" y="698" type="line"/>
      <point x="837" y="698" type="line"/>
      <point x="837" y="53" type="line"/>
      <point x="931" y="53" type="line"/>
      <point x="931" y="-150" type="line"/>
    </contour>
  </outline>
</glyph>
<glyph name="Ereversedcyr" format="2">
  <advance width="623"/>
  <unicode hex="042D"/>
  <outline>
    <contour>
      <point x="285" y="-12" type="qcurve" smooth="yes"/>
      <point x="197" y="-12"/>
      <point x="77" y="71"/>
      <point x="46" y="144" type="qcurve"/>
      <point x="94" y="173" type="line"/>
      <point x="144" y="42"/>
      <point x="285" y="42" type="qcurve" smooth="yes"/>
      <point x="386" y="42"/>
      <point x="496" y="182"/>
      <point x="496" y="312" type="qcurve" smooth="yes"/>
      <point x="496" y="327" type="line"/>
      <point x="181" y="327" type="line"/>
      <point x="181" y="380" type="line"/>
      <point x="496" y="380" type="line"/>
      <point x="496" y="391" type="line" smooth="yes"/>
      <point x="496" y="520"/>
      <point x="386" y="656"/>
      <point x="285" y="656" type="qcurve" smooth="yes"/>
      <point x="216" y="656"/>
      <point x="123" y="590"/>
      <point x="100" y="532" type="qcurve"/>
      <point x="51" y="561" type="line"/>
      <point x="120" y="710"/>
      <point x="285" y="710" type="qcurve" smooth="yes"/>
      <point x="418" y="710"/>
      <point x="560" y="529"/>
      <point x="560" y="351" type="qcurve" smooth="yes"/>
      <point x="560" y="174"/>
      <point x="418" y="-12"/>
    </contour>
  </outline>
</glyph>
<glyph name="acyr" format="2">
  <advance width="520"/>
  <unicode hex="0430"/>
  <outline>
    <contour>
      <point x="228" y="37" type="qcurve" smooth="yes"/>
      <point x="290" y="37"/>
      <point x="377" y="97"/>
      <point x="377" y="149" type="qcurve" smooth="yes"/>
      <point x="377" y="244" type="line"/>
      <point x="257" y="244" type="line" smooth="yes"/>
      <point x="111" y="244"/>
      <point x="111" y="152" type="qcurve" smooth="yes"/>
      <point x="111" y="128" type="line" smooth="yes"/>
      <point x="111" y="83"/>
      <point x="175" y="37"/>
    </contour>
    <contour>
      <point x="220" y="-12" type="qcurve" smooth="yes"/>
      <point x="139" y="-12"/>
      <point x="51" y="67"/>
      <point x="51" y="139" type="qcurve" smooth="yes"/>
      <point x="51" y="287"/>
      <point x="259" y="287" type="qcurve" smooth="yes"/>
      <point x="377" y="287" type="line"/>
      <point x="377" y="347" type="line" smooth="yes"/>
      <point x="377" y="474"/>
      <point x="248" y="474" type="qcurve" smooth="yes"/>
      <point x="246" y="474" type="line" smooth="yes"/>
      <point x="150" y="474"/>
      <point x="106" y="391" type="qcurve"/>
      <point x="70" y="421" type="line"/>
      <point x="117" y="524"/>
      <point x="248" y="524" type="qcurve" smooth="yes"/>
      <point x="428" y="524"/>
      <point x="434" y="353" type="qcurve"/>
      <point x="434" y="0" type="line"/>
      <point x="380" y="0" type="line"/>
      <point x="380" y="81" type="line"/>
      <point x="375" y="81" type="line"/>
      <point x="358" y="38"/>
      <point x="280" y="-12"/>
    </contour>
  </outline>
</glyph>
<glyph name="zecyr" format="2">
  <advance width="498"/>
  <unicode hex="0437"/>
  <outline>
    <contour>
      <point x="231" y="-12" type="qcurve" smooth="yes"/>
      <point x="156" y="-12"/>
      <point x="65" y="41"/>
      <point x="38" y="89" type="qcurve"/>
      <point x="81" y="122" type="line"/>
      <point x="126" y="39"/>
      <point x="231" y="39" type="qcurve" smooth="yes"/>
      <point x="297" y="39"/>
      <point x="369" y="91"/>
      <point x="369" y="133" type="qcurve" smooth="yes"/>
      <point x="369" y="149" type="line" smooth="yes"/>
      <point x="369" y="193"/>
      <point x="307" y="240"/>
      <point x="252" y="240" type="qcurve" smooth="yes"/>
      <point x="146" y="240" type="line"/>
      <point x="146" y="288" type="line"/>
      <point x="246" y="288" type="line" smooth="yes"/>
      <point x="297" y="288"/>
      <point x="358" y="336"/>
      <point x="358" y="375" type="qcurve" smooth="yes"/>
      <point x="358" y="389" type="line" smooth="yes"/>
      <point x="358" y="427"/>
      <point x="296" y="473"/>
      <point x="234" y="473" type="qcurve" smooth="yes"/>
      <point x="178" y="473"/>
      <point x="108" y="431"/>
      <point x="87" y="392" type="qcurve"/>
      <point x="48" y="423" type="line"/>
      <point x="100" y="524"/>
      <point x="236" y="524" type="qcurve" smooth="yes"/>
      <point x="327" y="524"/>
      <point x="418" y="452"/>
      <point x="418" y="389" type="qcurve" smooth="yes"/>
      <point x="418" y="290"/>
      <point x="317" y="270" type="qcurve"/>
      <point x="317" y="266" type="line"/>
      <point x="430" y="250"/>
      <point x="430" y="143" type="qcurve" smooth="yes"/>
      <point x="430" y="71"/>
      <point x="324" y="-12"/>
    </contour>
  </outline>
</glyph>
<glyph name="ucyr" format="2">
  <advance width="479"/>
  <unicode hex="0443"/>
  <outline>
    <contour>
      <point x="77" y="-200" type="line"/>
      <point x="77" y="-150" type="line"/>
      <point x="163" y="-150" type="line"/>
      <point x="212" y="-15" type="line"/>
      <point x="22" y="512" type="line"/>
      <point x="82" y="512" type="line"/>
      <point x="239" y="61" type="line"/>
      <point x="243" y="61" type="line"/>
      <point x="399" y="512" type="line"/>
      <point x="457" y="512" type="line"/>
      <point x="220" y="-144" type="line" smooth="yes"/>
      <point x="209" y="-176"/>
      <point x="174" y="-200"/>
      <point x="135" y="-200" type="qcurve" smooth="yes"/>
    </contour>
  </outline>
</glyph>
<glyph name="tsecyr" format="2">
  <advance width="593"/>
  <unicode hex="0446"/>
  <outline>
    <contour>
      <point x="506" y="-140" type="line"/>
      <point x="506" y="0" type="line"/>
      <point x="93" y="0" type="line"/>
      <point x="93" y="512" type="line"/>
      <point x="150" y="512" type="line"/>
      <point x="150" y="50" type="line"/>
      <point x="420" y="50" type="line"/>
      <point x="420" y="512" type="line"/>
      <point x="477" y="512" type="line"/>
      <point x="477" y="50" type="line"/>
      <point x="559" y="50" type="line"/>
      <point x="559" y="-140" type="line"/>
    </contour>
  </outline>
</glyph>
<glyph name="gjecyr" format="2">
  <advance width="438"/>
  <unicode hex="0453"/>
  <outline>
    <contour>
      <point x="93" y="0" type="line"/>
      <point x="93" y="512" type="line"/>
      <point x="407" y="512" type="line"/>
      <point x="407" y="462" type="line"/>
      <point x="150" y="462" type="line"/>
      <point x="150" y="0" type="line"/>
    </contour>
    <contour>
      <point x="212" y="604" type="line"/>
      <point x="307" y="768" type="line"/>
      <point x="359" y="742" type="line"/>
      <point x="249" y="586" type="line"/>
    </contour>
  </outline>
</glyph>
<glyph name="iukrcyr" format="2">
  <advance width="243"/>
  <unicode hex="0456"/>
  <outline>
    <contour>
      <point x="93" y="0" type="line"/>
      <point x="93" y="512" type="line"/>
      <point x="150" y="512" type="line"/>
      <point x="150" y="0" type="line"/>
    </contour>
    <contour>
      <point x="121" y="651" type="qcurve" smooth="yes"/>
      <point x="101" y="651"/>
      <point x="82" y="671"/>
      <point x="82" y="687" type="qcurve" smooth="yes"/>
      <point x="82" y="697" type="line" smooth="yes"/>
      <point x="82" y="713"/>
      <point x="101" y="733"/>
      <point x="121" y="733" type="qcurve" smooth="yes"/>
      <point x="141" y="733"/>
      <point x="160" y="713"/>
      <point x="160" y="697" type="qcurve" smooth="yes"/>
      <point x="160" y="687" type="line" smooth="yes"/>
      <point x="160" y="671"/>
      <point x="141" y="651"/>
    </contour>
  </outline>
</glyph>
<glyph name="zhetailcyr" format="2">
  <advance width="764"/>
  <unicode hex="0497"/>
  <outline>
    <contour>
      <point x="684" y="-140" type="line"/>
      <point x="684" y="0" type="line"/>
      <point x="662" y="0" type="line" smooth="yes"/>
      <point x="642" y="0"/>
      <point x="611" y="22"/>
      <point x="598" y="49" type="qcurve" smooth="yes"/>
      <point x="508" y="242" type="line"/>
      <point x="408" y="242" type="line"/>
      <point x="408" y="0" type="line"/>
      <point x="351" y="0" type="line"/>
      <point x="351" y="242" type="line"/>
      <point x="251" y="242" type="line"/>
      <point x="161" y="49" type="line" smooth="yes"/>
      <point x="148" y="22"/>
      <point x="117" y="0"/>
      <point x="97" y="0" type="qcurve" smooth="yes"/>
      <point x="41" y="0" type="line"/>
      <point x="41" y="50" type="line"/>
      <point x="100" y="50" type="line"/>
      <point x="178" y="217" type="line"/>
      <point x="200" y="262"/>
      <point x="230" y="265" type="qcurve"/>
      <point x="230" y="269" type="line"/>
      <point x="215" y="274"/>
      <point x="191" y="295"/>
      <point x="180" y="316" type="qcurve" smooth="yes"/>
      <point x="107" y="462" type="line"/>
      <point x="48" y="462" type="line"/>
      <point x="48" y="512" type="line"/>
      <point x="96" y="512" type="line" smooth="yes"/>
      <point x="141" y="512"/>
      <point x="164" y="465" type="qcurve" smooth="yes"/>
      <point x="251" y="291" type="line"/>
      <point x="351" y="291" type="line"/>
      <point x="351" y="512" type="line"/>
      <point x="408" y="512" type="line"/>
      <point x="408" y="291" type="line"/>
      <point x="508" y="291" type="line"/>
      <point x="595" y="465" type="line" smooth="yes"/>
      <point x="618" y="512"/>
      <point x="663" y="512" type="qcurve" smooth="yes"/>
      <point x="711" y="512" type="line"/>
      <point x="711" y="462" type="line"/>
      <point x="652" y="462" type="line"/>
      <point x="579" y="316" type="line" smooth="yes"/>
      <point x="568" y="295"/>
      <point x="545" y="274"/>
      <point x="529" y="269" type="qcurve"/>
      <point x="529" y="265" type="line"/>
      <point x="560" y="262"/>
      <point x="581" y="217" type="qcurve" smooth="yes"/>
      <point x="659" y="50" type="line"/>
      <point x="737" y="50" type="line"/>
      <point x="737" y="-140" type="line"/>
    </contour>
  </outline>
</glyph>
<glyph name="Shhacyr" format="2">
  <advance width="636"/>
  <unicode hex="04BA"/>
  <outline>
    <contour>
      <point x="514" y="0" type="line"/>
      <point x="514" y="195" type="line" smooth="yes"/>
      <point x="514" y="294"/>
      <point x="419" y="383"/>
      <point x="326" y="383" type="qcurve" smooth="yes"/>
      <point x="220" y="383"/>
      <point x="159" y="358" type="qcurve"/>
      <point x="159" y="0" type="line"/>
      <point x="99" y="0" type="line"/>
      <point x="99" y="698" type="line"/>
      <point x="159" y="698" type="line"/>
      <point x="159" y="411" type="line"/>
      <point x="164" y="411" type="line"/>
      <point x="227" y="436"/>
      <point x="329" y="436" type="qcurve" smooth="yes"/>
      <point x="455" y="436"/>
      <point x="574" y="319"/>
      <point x="574" y="195" type="qcurve" smooth="yes"/>
      <point x="574" y="0" type="line"/>
    </contour>
  </outline>
</glyph>
<glyph name="zedieresiscyr" format="2">
  <advance width="498"/>
  <unicode hex="04DF"/>
  <outline>
    <contour>
      <point x="231" y="-12" type="qcurve" smooth="yes"/>
      <point x="156" y="-12"/>
      <point x="65" y="41"/>
      <point x="38" y="89" type="qcurve"/>
      <point x="81" y="122" type="line"/>
      <point x="126" y="39"/>
      <point x="231" y="39" type="qcurve" smooth="yes"/>
      <point x="297" y="39"/>
      <point x="369" y="91"/>
      <point x="369" y="133" type="qcurve" smooth="yes"/>
      <point x="369" y="149" type="line" smooth="yes"/>
      <point x="369" y="193"/>
      <point x="307" y="240"/>
      <point x="252" y="240" type="qcurve" smooth="yes"/>
      <point x="146" y="240" type="line"/>
      <point x="146" y="288" type="line"/>
      <point x="246" y="288" type="line" smooth="yes"/>
      <point x="297" y="288"/>
      <point x="358" y="336"/>
      <point x="358" y="375" type="qcurve" smooth="yes"/>
      <point x="358" y="389" type="line" smooth="yes"/>
      <point x="358" y="427"/>
      <point x="296" y="473"/>
      <point x="234" y="473" type="qcurve" smooth="yes"/>
      <point x="178" y="473"/>
      <point x="108" y="431"/>
      <point x="87" y="392" type="qcurve"/>
      <point x="48" y="423" type="line"/>
      <point x="100" y="524"/>
      <point x="236" y="524" type="qcurve" smooth="yes"/>
      <point x="327" y="524"/>
      <point x="418" y="452"/>
      <point x="418" y="389" type="qcurve" smooth="yes"/>
      <point x="418" y="290"/>
      <point x="317" y="270" type="qcurve"/>
      <point x="317" y="266" type="line"/>
      <point x="430" y="250"/>
      <point x="430" y="143" type="qcurve" smooth="yes"/>
      <point x="430" y="71"/>
      <point x="324" y="-12"/>
    </contour>
    <contour>
      <point x="144" y="627" type="qcurve" smooth="yes"/>
      <point x="105" y="627"/>
      <point x="105" y="663" type="qcurve" smooth="yes"/>
      <point x="105" y="673" type="line" smooth="yes"/>
      <point x="105" y="709"/>
      <point x="144" y="709" type="qcurve" smooth="yes"/>
      <point x="164" y="709"/>
      <point x="183" y="689"/>
      <point x="183" y="673" type="qcurve" smooth="yes"/>
      <point x="183" y="663" type="line" smooth="yes"/>
      <point x="183" y="647"/>
      <point x="164" y="627"/>
    </contour>
    <contour>
      <point x="328" y="627" type="qcurve" smooth="yes"/>
      <point x="308" y="627"/>
      <point x="289" y="647"/>
      <point x="289" y="663" type="qcurve" smooth="yes"/>
      <point x="289" y="673" type="line" smooth="yes"/>
      <point x="289" y="689"/>
      <point x="308" y="709"/>
      <point x="328" y="709" type="qcurve" smooth="yes"/>
      <point x="367" y="709"/>
      <point x="367" y="673" type="qcurve" smooth="yes"/>
      <point x="367" y="663" type="line" smooth="yes"/>
      <point x="367" y="627"/>
    </contour>
  </outline>
</glyph>
<glyph name="idieresiscyr" format="2">
  <advance width="584"/>
  <unicode hex="04E5"/>
  <outline>
    <contour>
      <point x="435" y="0" type="line"/>
      <point x="435" y="332" type="line"/>
      <point x="441" y="435" type="line"/>
      <point x="437" y="435" type="line"/>
      <point x="383" y="344" type="line"/>
      <point x="145" y="0" type="line"/>
      <point x="93" y="0" type="line"/>
      <point x="93" y="512" type="line"/>
      <point x="149" y="512" type="line"/>
      <point x="149" y="180" type="line"/>
      <point x="143" y="77" type="line"/>
      <point x="147" y="77" type="line"/>
      <point x="200" y="168" type="line"/>
      <point x="438" y="512" type="line"/>
      <point x="491" y="512" type="line"/>
      <point x="491" y="0" type="line"/>
    </contour>
    <contour>
      <point x="200" y="627" type="qcurve" smooth="yes"/>
      <point x="161" y="627"/>
      <point x="161" y="663" type="qcurve" smooth="yes"/>
      <point x="161" y="673" type="line" smooth="yes"/>
      <point x="161" y="709"/>
      <point x="200" y="709" type="qcurve" smooth="yes"/>
      <point x="220" y="709"/>
      <point x="239" y="689"/>
      <point x="239" y="673" type="qcurve" smooth="yes"/>
      <point x="239" y="663" type="line" smooth="yes"/>
      <point x="239" y="647"/>
      <point x="220" y="627"/>
    </contour>
    <contour>
      <point x="384" y="627" type="qcurve" smooth="yes"/>
      <point x="364" y="627"/>
      <point x="345" y="647"/>
      <point x="345" y="663" type="qcurve" smooth="yes"/>
      <point x="345" y="673" type="line" smooth="yes"/>
      <point x="345" y="689"/>
      <point x="364" y="709"/>
      <point x="384" y="709" type="qcurve" smooth="yes"/>
      <point x="423" y="709"/>
      <point x="423" y="673" type="qcurve" smooth="yes"/>
      <point x="423" y="663" type="line" smooth="yes"/>
      <point x="423" y="627"/>
    </contour>
  </outline>
</glyph>
<glyph name="Adotbelow" format="2">
  <advance width="625"/>
  <unicode hex="1EA0"/>
  <outline>
    <contour>
      <point x="313" y="641" type="line"/>
      <point x="309" y="641" type="line"/>
      <point x="178" y="269" type="line"/>
      <point x="444" y="269" type="line"/>
    </contour>
    <contour>
      <point x="316" y="-155" type="qcurve"/>
      <point x="276" y="-152"/>
      <point x="276" y="-118" type="qcurve" smooth="yes"/>
      <point x="276" y="-110" type="line" smooth="yes"/>
      <point x="276" y="-73"/>
      <point x="316" y="-73" type="qcurve"/>
      <point x="356" y="-75"/>
      <point x="356" y="-110" type="qcurve" smooth="yes"/>
      <point x="356" y="-120" type="line" smooth="yes"/>
      <point x="356" y="-155"/>
    </contour>
    <contour>
      <point x="536" y="0" type="line"/>
      <point x="460" y="217" type="line"/>
      <point x="163" y="217" type="line"/>
      <point x="87" y="0" type="line"/>
      <point x="27" y="0" type="line"/>
      <point x="274" y="698" type="line"/>
      <point x="351" y="698" type="line"/>
      <point x="599" y="0" type="line"/>
    </contour>
  </outline>
</glyph>
<glyph name="Ahoi" format="2">
  <advance width="625"/>
  <unicode hex="1EA2"/>
  <outline>
    <contour>
      <point x="313" y="641" type="line"/>
      <point x="309" y="641" type="line"/>
      <point x="178" y="269" type="line"/>
      <point x="444" y="269" type="line"/>
    </contour>
    <contour>
      <point x="536" y="0" type="line"/>
      <point x="460" y="217" type="line"/>
      <point x="163" y="217" type="line"/>
      <point x="87" y="0" type="line"/>
      <point x="27" y="0" type="line"/>
      <point x="274" y="698" type="line"/>
      <point x="351" y="698" type="line"/>
      <point x="599" y="0" type="line"/>
    </contour>
    <contour>
      <point x="294" y="771" type="line"/>
      <point x="360" y="884" type="line"/>
      <point x="233" y="884" type="line"/>
      <point x="233" y="928" type="line"/>
      <point x="353" y="928" type="line" smooth="yes"/>
      <point x="404" y="928"/>
      <point x="404" y="887" type="qcurve" smooth="yes"/>
      <point x="404" y="857"/>
      <point x="363" y="802" type="qcurve"/>
      <point x="329" y="754" type="line"/>
    </contour>
  </outline>
</glyph>
<glyph name="Abrevetilde" format="2">
  <advance width="625"/>
  <unicode hex="1EB4"/>
  <outline>
    <contour>
      <point x="313" y="641" type="line"/>
      <point x="309" y="641" type="line"/>
      <point x="178" y="269" type="line"/>
      <point x="444" y="269" type="line"/>
    </contour>
    <contour>
      <point x="536" y="0" type="line"/>
      <point x="460" y="217" type="line"/>
      <point x="163" y="217" type="line"/>
      <point x="87" y="0" type="line"/>
      <point x="27" y="0" type="line"/>
      <point x="274" y="698" type="line"/>
      <point x="351" y="698" type="line"/>
      <point x="599" y="0" type="line"/>
    </contour>
    <contour>
      <point x="385" y="942" type="qcurve" smooth="yes"/>
      <point x="363" y="942"/>
      <point x="327" y="958"/>
      <point x="306" y="970" type="qcurve"/>
      <point x="266" y="995"/>
      <point x="237" y="995" type="qcurve" smooth="yes"/>
      <point x="220" y="995"/>
      <point x="192" y="979"/>
      <point x="177" y="965" type="qcurve"/>
      <point x="153" y="992" type="line"/>
      <point x="188" y="1040"/>
      <point x="241" y="1040" type="qcurve" smooth="yes"/>
      <point x="263" y="1040"/>
      <point x="299" y="1024"/>
      <point x="320" y="1012" type="qcurve"/>
      <point x="361" y="987"/>
      <point x="389" y="987" type="qcurve" smooth="yes"/>
      <point x="406" y="987"/>
      <point x="434" y="1003"/>
      <point x="449" y="1017" type="qcurve"/>
      <point x="473" y="990" type="line"/>
      <point x="438" y="942"/>
    </contour>
    <contour>
      <point x="313" y="763" type="qcurve" smooth="yes"/>
      <point x="252" y="763"/>
      <point x="216" y="800" type="qcurve"/>
      <point x="185" y="834"/>
      <point x="169" y="881" type="qcurve"/>
      <point x="202" y="897" type="line"/>
      <point x="222" y="863" type="line"/>
      <point x="238" y="834"/>
      <point x="277" y="806"/>
      <point x="313" y="806" type="qcurve" smooth="yes"/>
      <point x="349" y="806"/>
      <point x="388" y="834"/>
      <point x="404" y="863" type="qcurve"/>
      <point x="424" y="897" type="line"/>
      <point x="457" y="881" type="line"/>
      <point x="430" y="798"/>
      <point x="371" y="773" type="qcurve" smooth="yes"/>
      <point x="347" y="763"/>
    </contour>
  </outline>
</glyph>
<glyph name="Ecircumflextilde" format="2">
  <advance width="574"/>
  <unicode hex="1EC4"/>
  <outline>
    <contour>
      <point x="99" y="0" type="line"/>
      <point x="99" y="698" type="line"/>
      <point x="507" y="698" type="line"/>
      <point x="507" y="645" type="line"/>
      <point x="159" y="645" type="line"/>
      <point x="159" y="381" type="line"/>
      <point x="490" y="381" type="line"/>
      <point x="490" y="328" type="line"/>
      <point x="159" y="328" type="line"/>
      <point x="159" y="53" type="line"/>
      <point x="507" y="53" type="line"/>
      <point x="507" y="0" type="line"/>
    </contour>
    <contour>
      <point x="374" y="947" type="qcurve" smooth="yes"/>
      <point x="351" y="947"/>
      <point x="315" y="962"/>
      <point x="295" y="974" type="qcurve" smooth="yes"/>
      <point x="255" y="999"/>
      <point x="226" y="999" type="qcurve" smooth="yes"/>
      <point x="209" y="999"/>
      <point x="181" y="983"/>
      <point x="166" y="969" type="qcurve"/>
      <point x="142" y="996" type="line"/>
      <point x="176" y="1043"/>
      <point x="230" y="1043" type="qcurve" smooth="yes"/>
      <point x="253" y="1043"/>
      <point x="289" y="1028"/>
      <point x="309" y="1016" type="qcurve" smooth="yes"/>
      <point x="350" y="991"/>
      <point x="378" y="991" type="qcurve" smooth="yes"/>
      <point x="395" y="991"/>
      <point x="423" y="1007"/>
      <point x="438" y="1021" type="qcurve"/>
      <point x="462" y="994" type="line"/>
      <point x="428" y="947"/>
    </contour>
    <contour>
      <point x="302" y="877" type="line"/>
      <point x="180" y="759" type="line"/>
      <point x="150" y="781" type="line"/>
      <point x="267" y="915" type="line"/>
      <point x="337" y="915" type="line"/>
      <point x="454" y="781" type="line"/>
      <point x="424" y="759" type="line"/>
    </contour>
  </outline>
</glyph>
<glyph name="uhorntilde" format="2">
  <advance width="564"/>
  <unicode hex="1EEF"/>
  <outline>
    <contour>
      <point x="260" y="-12" type="qcurve" smooth="yes"/>
      <point x="178" y="-12"/>
      <point x="86" y="89"/>
      <point x="86" y="183" type="qcurve" smooth="yes"/>
      <point x="86" y="512" type="line"/>
      <point x="143" y="512" type="line"/>
      <point x="143" y="194" type="line" smooth="yes"/>
      <point x="143" y="39"/>
      <point x="275" y="39" type="qcurve" smooth="yes"/>
      <point x="329" y="39"/>
      <point x="414" y="95"/>
      <point x="414" y="153" type="qcurve" smooth="yes"/>
      <point x="414" y="512" type="line"/>
      <point x="501" y="512" type="line"/>
      <point x="501" y="624" type="line"/>
      <point x="552" y="624" type="line"/>
      <point x="552" y="522" type="line" smooth="yes"/>
      <point x="552" y="500"/>
      <point x="531" y="473"/>
      <point x="502" y="473" type="qcurve" smooth="yes"/>
      <point x="471" y="473" type="line"/>
      <point x="471" y="0" type="line"/>
      <point x="414" y="0" type="line"/>
      <point x="414" y="81" type="line"/>
      <point x="410" y="81" type="line"/>
      <point x="397" y="43"/>
      <point x="361" y="17" type="qcurve" smooth="yes"/>
      <point x="321" y="-12"/>
    </contour>
    <contour>
      <point x="357" y="621" type="qcurve" smooth="yes"/>
      <point x="336" y="621"/>
      <point x="302" y="635"/>
      <point x="264" y="657"/>
      <point x="238" y="668"/>
      <point x="224" y="668" type="qcurve" smooth="yes"/>
      <point x="190" y="668"/>
      <point x="164" y="639" type="qcurve"/>
      <point x="139" y="668" type="line"/>
      <point x="173" y="715"/>
      <point x="225" y="715" type="qcurve" smooth="yes"/>
      <point x="246" y="715"/>
      <point x="280" y="701"/>
      <point x="318" y="679"/>
      <point x="344" y="668"/>
      <point x="358" y="668" type="qcurve" smooth="yes"/>
      <point x="393" y="668"/>
      <point x="418" y="697" type="qcurve"/>
      <point x="443" y="668" type="line"/>
      <point x="409" y="621"/>
    </contour>
  </outline>
</glyph>
<glyph name="dagger" format="2">
  <advance width="557"/>
  <unicode hex="2020"/>
  <outline>
    <contour>
      <point x="253" y="-200" type="line"/>
      <point x="253" y="466" type="line"/>
      <point x="54" y="466" type="line"/>
      <point x="54" y="512" type="line"/>
      <point x="253" y="512" type="line"/>
      <point x="253" y="740" type="line"/>
      <point x="304" y="740" type="line"/>
      <point x="304" y="512" type="line"/>
      <point x="503" y="512" type="line"/>
      <point x="503" y="466" type="line"/>
      <point x="304" y="466" type="line"/>
      <point x="304" y="-200" type="line"/>
    </contour>
  </outline>
</glyph>
<glyph name="ellipsis" format="2">
  <advance width="780"/>
  <unicode hex="2026"/>
  <outline>
    <contour>
      <point x="650" y="-9" type="qcurve" smooth="yes"/>
      <point x="625" y="-9"/>
      <point x="602" y="16"/>
      <point x="602" y="36" type="qcurve" smooth="yes"/>
      <point x="602" y="47" type="line" smooth="yes"/>
      <point x="602" y="67"/>
      <point x="625" y="92"/>
      <point x="650" y="92" type="qcurve" smooth="yes"/>
      <point x="674" y="92"/>
      <point x="698" y="67"/>
      <point x="698" y="47" type="qcurve" smooth="yes"/>
      <point x="698" y="36" type="line" smooth="yes"/>
      <point x="698" y="-9"/>
    </contour>
    <contour>
      <point x="130" y="-9" type="qcurve" smooth="yes"/>
      <point x="105" y="-9"/>
      <point x="82" y="16"/>
      <point x="82" y="36" type="qcurve" smooth="yes"/>
      <point x="82" y="47" type="line" smooth="yes"/>
      <point x="82" y="67"/>
      <point x="105" y="92"/>
      <point x="130" y="92" type="qcurve" smooth="yes"/>
      <point x="154" y="92"/>
      <point x="178" y="67"/>
      <point x="178" y="47" type="qcurve" smooth="yes"/>
      <point x="178" y="36" type="line" smooth="yes"/>
      <point x="178" y="-9"/>
    </contour>
    <contour>
      <point x="390" y="-9" type="qcurve" smooth="yes"/>
      <point x="365" y="-9"/>
      <point x="342" y="16"/>
      <point x="342" y="36" type="qcurve" smooth="yes"/>
      <point x="342" y="47" type="line" smooth="yes"/>
      <point x="342" y="67"/>
      <point x="365" y="92"/>
      <point x="390" y="92" type="qcurve" smooth="yes"/>
      <point x="414" y="92"/>
      <point x="438" y="67"/>
      <point x="438" y="47" type="qcurve" smooth="yes"/>
      <point x="438" y="36" type="line" smooth="yes"/>
      <point x="438" y="-9"/>
    </contour>
  </outline>
</glyph>
<glyph name="perthousand" format="2">
  <advance width="1279"/>
  <unicode hex="2030"/>
  <outline>
    <contour>
      <point x="1058" y="26" type="qcurve" smooth="yes"/>
      <point x="1103" y="26"/>
      <point x="1158" y="90"/>
      <point x="1158" y="159" type="qcurve" smooth="yes"/>
      <point x="1158" y="208" type="line" smooth="yes"/>
      <point x="1158" y="277"/>
      <point x="1103" y="341"/>
      <point x="1058" y="341" type="qcurve" smooth="yes"/>
      <point x="1013" y="341"/>
      <point x="958" y="277"/>
      <point x="958" y="208" type="qcurve" smooth="yes"/>
      <point x="958" y="159" type="line" smooth="yes"/>
      <point x="958" y="90"/>
      <point x="1013" y="26"/>
    </contour>
    <contour>
      <point x="221" y="357" type="qcurve" smooth="yes"/>
      <point x="266" y="357"/>
      <point x="321" y="421"/>
      <point x="321" y="490" type="qcurve" smooth="yes"/>
      <point x="321" y="539" type="line" smooth="yes"/>
      <point x="321" y="608"/>
      <point x="266" y="672"/>
      <point x="221" y="672" type="qcurve" smooth="yes"/>
      <point x="176" y="672"/>
      <point x="121" y="608"/>
      <point x="121" y="539" type="qcurve" smooth="yes"/>
      <point x="121" y="490" type="line" smooth="yes"/>
      <point x="121" y="421"/>
      <point x="176" y="357"/>
    </contour>
    <contour>
      <point x="687" y="26" type="qcurve" smooth="yes"/>
      <point x="732" y="26"/>
      <point x="787" y="90"/>
      <point x="787" y="159" type="qcurve" smooth="yes"/>
      <point x="787" y="208" type="line" smooth="yes"/>
      <point x="787" y="277"/>
      <point x="732" y="341"/>
      <point x="687" y="341" type="qcurve" smooth="yes"/>
      <point x="642" y="341"/>
      <point x="587" y="277"/>
      <point x="587" y="208" type="qcurve" smooth="yes"/>
      <point x="587" y="159" type="line" smooth="yes"/>
      <point x="587" y="90"/>
      <point x="642" y="26"/>
    </contour>
    <contour>
      <point x="1058" y="-12" type="qcurve" smooth="yes"/>
      <point x="989" y="-12"/>
      <point x="906" y="84"/>
      <point x="906" y="183" type="qcurve" smooth="yes"/>
      <point x="906" y="283"/>
      <point x="989" y="379"/>
      <point x="1058" y="379" type="qcurve" smooth="yes"/>
      <point x="1127" y="379"/>
      <point x="1210" y="283"/>
      <point x="1210" y="183" type="qcurve" smooth="yes"/>
      <point x="1210" y="84"/>
      <point x="1127" y="-12"/>
    </contour>
    <contour>
      <point x="221" y="319" type="qcurve" smooth="yes"/>
      <point x="152" y="319"/>
      <point x="69" y="415"/>
      <point x="69" y="514" type="qcurve" smooth="yes"/>
      <point x="69" y="614"/>
      <point x="152" y="710"/>
      <point x="221" y="710" type="qcurve" smooth="yes"/>
      <point x="290" y="710"/>
      <point x="373" y="614"/>
      <point x="373" y="514" type="qcurve" smooth="yes"/>
      <point x="373" y="415"/>
      <point x="290" y="319"/>
    </contour>
    <contour>
      <point x="185" y="0" type="line"/>
      <point x="669" y="698" type="line"/>
      <point x="725" y="698" type="line"/>
      <point x="241" y="0" type="line"/>
    </contour>
    <contour>
      <point x="687" y="-12" type="qcurve" smooth="yes"/>
      <point x="618" y="-12"/>
      <point x="535" y="84"/>
      <point x="535" y="183" type="qcurve" smooth="yes"/>
      <point x="535" y="283"/>
      <point x="618" y="379"/>
      <point x="687" y="379" type="qcurve" smooth="yes"/>
      <point x="756" y="379"/>
      <point x="839" y="283"/>
      <point x="839" y="183" type="qcurve" smooth="yes"/>
      <point x="839" y="84"/>
      <point x="756" y="-12"/>
    </contour>
  </outline>
</glyph>
<glyph name="guilsinglleft" format="2">
  <advance width="299"/>
  <unicode hex="2039"/>
  <outline>
    <contour>
      <point x="35" y="261" type="line"/>
      <point x="35" y="315" type="line"/>
      <point x="230" y="486" type="line"/>
      <point x="248" y="447" type="line"/>
      <point x="92" y="288" type="line"/>
      <point x="248" y="129" type="line"/>
      <point x="230" y="90" type="line"/>
    </contour>
  </outline>
</glyph>
<glyph name="six.superior" format="2">
  <advance width="360"/>
  <unicode hex="2076"/>
  <outline>
    <contour>
      <point x="182" y="359" type="qcurve" smooth="yes"/>
      <point x="220" y="359"/>
      <point x="269" y="397"/>
      <point x="269" y="436" type="qcurve" smooth="yes"/>
      <point x="269" y="444" type="line" smooth="yes"/>
      <point x="269" y="484"/>
      <point x="220" y="522"/>
      <point x="182" y="522" type="qcurve" smooth="yes"/>
      <point x="144" y="522"/>
      <point x="96" y="484"/>
      <point x="96" y="444" type="qcurve" smooth="yes"/>
      <point x="96" y="436" type="line" smooth="yes"/>
      <point x="96" y="397"/>
      <point x="144" y="359"/>
    </contour>
    <contour>
      <point x="181" y="323" type="qcurve"/>
      <point x="48" y="328"/>
      <point x="48" y="461" type="qcurve" smooth="yes"/>
      <point x="48" y="536"/>
      <point x="97" y="606" type="qcurve"/>
      <point x="142" y="667"/>
      <point x="192" y="698" type="qcurve"/>
      <point x="255" y="698" type="line"/>
      <point x="190" y="657"/>
      <point x="112" y="567"/>
      <point x="96" y="506" type="qcurve"/>
      <point x="99" y="505" type="line"/>
      <point x="131" y="558"/>
      <point x="196" y="558" type="qcurve" smooth="yes"/>
      <point x="250" y="558"/>
      <point x="317" y="497"/>
      <point x="317" y="444" type="qcurve" smooth="yes"/>
      <point x="317" y="389"/>
      <point x="244" y="323"/>
    </contour>
  </outline>
</glyph>
<glyph name="two.inferior" format="2">
  <advance width="346"/>
  <unicode hex="2082"/>
  <outline>
    <contour>
      <point x="41" y="0" type="line"/>
      <point x="41" y="43" type="line"/>
      <point x="174" y="151" type="line" smooth="yes"/>
      <point x="245" y="207"/>
      <point x="245" y="261" type="qcurve" smooth="yes"/>
      <point x="245" y="269" type="line" smooth="yes"/>
      <point x="245" y="299"/>
      <point x="206" y="337"/>
      <point x="168" y="337" type="qcurve" smooth="yes"/>
      <point x="129" y="337"/>
      <point x="87" y="301"/>
      <point x="76" y="271" type="qcurve"/>
      <point x="37" y="285" type="line"/>
      <point x="49" y="322"/>
      <point x="113" y="375"/>
      <point x="171" y="375" type="qcurve" smooth="yes"/>
      <point x="231" y="375"/>
      <point x="294" y="314"/>
      <point x="294" y="268" type="qcurve" smooth="yes"/>
      <point x="294" y="226"/>
      <point x="244" y="159"/>
      <point x="199" y="124" type="qcurve" smooth="yes"/>
      <point x="90" y="37" type="line"/>
      <point x="307" y="37" type="line"/>
      <point x="307" y="0" type="line"/>
    </contour>
  </outline>
</glyph>
<glyph name="hryvnia" format="2">
  <advance width="621"/>
  <unicode hex="20B4"/>
  <outline>
    <contour>
      <point x="315" y="-12" type="qcurve" smooth="yes"/>
      <point x="224" y="-12"/>
      <point x="112" y="87"/>
      <point x="112" y="169" type="qcurve" smooth="yes"/>
      <point x="112" y="214"/>
      <point x="136" y="257" type="qcurve"/>
      <point x="48" y="257" type="line"/>
      <point x="48" y="305" type="line"/>
      <point x="173" y="305" type="line"/>
      <point x="364" y="417" type="line"/>
      <point x="48" y="417" type="line"/>
      <point x="48" y="465" type="line"/>
      <point x="424" y="465" type="line"/>
      <point x="443" y="494"/>
      <point x="443" y="537" type="qcurve" smooth="yes"/>
      <point x="443" y="596"/>
      <point x="370" y="657"/>
      <point x="307" y="657" type="qcurve" smooth="yes"/>
      <point x="220" y="657"/>
      <point x="155" y="585" type="qcurve"/>
      <point x="117" y="624" type="line"/>
      <point x="197" y="710"/>
      <point x="311" y="710" type="qcurve" smooth="yes"/>
      <point x="395" y="710"/>
      <point x="450" y="665" type="qcurve"/>
      <point x="503" y="619"/>
      <point x="503" y="541" type="qcurve" smooth="yes"/>
      <point x="503" y="493"/>
      <point x="485" y="465" type="qcurve"/>
      <point x="573" y="465" type="line"/>
      <point x="573" y="417" type="line"/>
      <point x="449" y="417" type="line"/>
      <point x="259" y="305" type="line"/>
      <point x="573" y="305" type="line"/>
      <point x="573" y="257" type="line"/>
      <point x="199" y="257" type="line"/>
      <point x="172" y="226"/>
      <point x="172" y="173" type="qcurve" smooth="yes"/>
      <point x="172" y="108"/>
      <point x="250" y="41"/>
      <point x="318" y="41" type="qcurve" smooth="yes"/>
      <point x="408" y="41"/>
      <point x="488" y="125" type="qcurve"/>
      <point x="525" y="85" type="line"/>
      <point x="435" y="-12"/>
    </contour>
  </outline>
</glyph>
<glyph name="litre" format="2">
  <advance width="477"/>
  <unicode hex="2113"/>
  <outline>
    <contour>
      <point x="177" y="281" type="line"/>
      <point x="245" y="351"/>
      <point x="325" y="508"/>
      <point x="325" y="587" type="qcurve" smooth="yes"/>
      <point x="325" y="602" type="line" smooth="yes"/>
      <point x="325" y="704"/>
      <point x="253" y="704" type="qcurve" smooth="yes"/>
      <point x="219" y="704"/>
      <point x="177" y="647"/>
      <point x="177" y="570" type="qcurve" smooth="yes"/>
    </contour>
    <contour>
      <point x="265" y="-12" type="qcurve" smooth="yes"/>
      <point x="192" y="-12"/>
      <point x="123" y="83"/>
      <point x="123" y="161" type="qcurve" smooth="yes"/>
      <point x="123" y="181" type="line"/>
      <point x="93" y="157"/>
      <point x="62" y="138" type="qcurve"/>
      <point x="38" y="178" type="line"/>
      <point x="80" y="203"/>
      <point x="122" y="237" type="qcurve"/>
      <point x="122" y="565" type="line" smooth="yes"/>
      <point x="122" y="752"/>
      <point x="251" y="752" type="qcurve" smooth="yes"/>
      <point x="253" y="752" type="line" smooth="yes"/>
      <point x="378" y="752"/>
      <point x="378" y="595" type="qcurve" smooth="yes"/>
      <point x="378" y="401"/>
      <point x="177" y="219" type="qcurve"/>
      <point x="177" y="167" type="line" smooth="yes"/>
      <point x="177" y="38"/>
      <point x="269" y="38" type="qcurve" smooth="yes"/>
      <point x="319" y="38"/>
      <point x="382" y="100"/>
      <point x="404" y="147" type="qcurve"/>
      <point x="445" y="122" type="line"/>
      <point x="385" y="-12"/>
    </contour>
  </outline>
</glyph>
<glyph name="trademark" format="2">
  <advance width="650"/>
  <unicode hex="2122"/>
  <outline>
    <contour>
      <point x="531" y="423" type="line"/>
      <point x="531" y="643" type="line"/>
      <point x="528" y="643" type="line"/>
      <point x="442" y="481" type="line"/>
      <point x="356" y="643" type="line"/>
      <point x="353" y="643" type="line"/>
      <point x="353" y="423" type="line"/>
      <point x="318" y="423" type="line"/>
      <point x="318" y="698" type="line"/>
      <point x="365" y="698" type="line"/>
      <point x="441" y="551" type="line"/>
      <point x="444" y="551" type="line"/>
      <point x="520" y="698" type="line"/>
      <point x="565" y="698" type="line"/>
      <point x="565" y="423" type="line"/>
    </contour>
    <contour>
      <point x="125" y="423" type="line"/>
      <point x="125" y="664" type="line"/>
      <point x="28" y="664" type="line"/>
      <point x="28" y="698" type="line"/>
      <point x="258" y="698" type="line"/>
      <point x="258" y="664" type="line"/>
      <point x="163" y="664" type="line"/>
      <point x="163" y="423" type="line"/>
    </contour>
  </outline>
</glyph>
<glyph name="fourfifths" format="2">
  <advance width="842"/>
  <unicode hex="2158"/>
  <outline>
    <contour>
      <point x="218" y="656" type="line"/>
      <point x="215" y="656" type="line"/>
      <point x="61" y="444" type="line"/>
      <point x="218" y="444" type="line"/>
    </contour>
    <contour>
      <point x="665" y="-6" type="qcurve" smooth="yes"/>
      <point x="577" y="-6"/>
      <point x="536" y="56" type="qcurve"/>
      <point x="569" y="81" type="line"/>
      <point x="584" y="59"/>
      <point x="627" y="31"/>
      <point x="665" y="31" type="qcurve" smooth="yes"/>
      <point x="709" y="31"/>
      <point x="753" y="73"/>
      <point x="753" y="108" type="qcurve" smooth="yes"/>
      <point x="753" y="116" type="line" smooth="yes"/>
      <point x="753" y="151"/>
      <point x="712" y="193"/>
      <point x="668" y="193" type="qcurve" smooth="yes"/>
      <point x="639" y="193"/>
      <point x="603" y="175"/>
      <point x="589" y="160" type="qcurve"/>
      <point x="550" y="165" type="line"/>
      <point x="564" y="369" type="line"/>
      <point x="783" y="369" type="line"/>
      <point x="783" y="332" type="line"/>
      <point x="600" y="332" type="line"/>
      <point x="589" y="186" type="line"/>
      <point x="592" y="186" type="line"/>
      <point x="624" y="230"/>
      <point x="681" y="230" type="qcurve" smooth="yes"/>
      <point x="735" y="230"/>
      <point x="801" y="169"/>
      <point x="801" y="116" type="qcurve" smooth="yes"/>
      <point x="801" y="61"/>
      <point x="730" y="-6"/>
    </contour>
    <contour>
      <point x="218" y="329" type="line"/>
      <point x="218" y="408" type="line"/>
      <point x="20" y="408" type="line"/>
      <point x="20" y="447" type="line"/>
      <point x="200" y="698" type="line"/>
      <point x="262" y="698" type="line"/>
      <point x="262" y="444" type="line"/>
      <point x="322" y="444" type="line"/>
      <point x="322" y="408" type="line"/>
      <point x="262" y="408" type="line"/>
      <point x="262" y="329" type="line"/>
    </contour>
    <contour>
      <point x="166" y="0" type="line"/>
      <point x="637" y="698" type="line"/>
      <point x="686" y="698" type="line"/>
      <point x="215" y="0" type="line"/>
    </contour>
  </outline>
</glyph>
<glyph name="integral" format="2">
  <advance width="398"/>
  <unicode hex="222B"/>
  <outline>
    <contour>
      <point x="51" y="-200" type="line"/>
      <point x="51" y="-150" type="line"/>
      <point x="171" y="-150" type="line"/>
      <point x="171" y="657" type="line" smooth="yes"/>
      <point x="171" y="740"/>
      <point x="251" y="740" type="qcurve" smooth="yes"/>
      <point x="348" y="740" type="line"/>
      <point x="348" y="690" type="line"/>
      <point x="228" y="690" type="line"/>
      <point x="228" y="-117" type="line" smooth="yes"/>
      <point x="228" y="-155"/>
      <point x="189" y="-200"/>
      <point x="147" y="-200" type="qcurve" smooth="yes"/>
    </contour>
  </outline>
</glyph>
<glyph name="approxequal" format="2">
  <advance width="600"/>
  <unicode hex="2248"/>
  <outline>
    <contour>
      <point x="421" y="153" type="qcurve" smooth="yes"/>
      <point x="387" y="153"/>
      <point x="359" y="162" type="qcurve" smooth="yes"/>
      <point x="339" y="169"/>
      <point x="287" y="192" type="qcurve" smooth="yes"/>
      <point x="255" y="207"/>
      <point x="204" y="225"/>
      <point x="176" y="225" type="qcurve" smooth="yes"/>
      <point x="150" y="225"/>
      <point x="111" y="208"/>
      <point x="88" y="189" type="qcurve"/>
      <point x="63" y="221" type="line"/>
      <point x="84" y="246"/>
      <point x="138" y="273"/>
      <point x="179" y="273" type="qcurve" smooth="yes"/>
      <point x="213" y="273"/>
      <point x="241" y="264" type="qcurve" smooth="yes"/>
      <point x="261" y="257"/>
      <point x="313" y="234" type="qcurve" smooth="yes"/>
      <point x="345" y="219"/>
      <point x="396" y="201"/>
      <point x="424" y="201" type="qcurve" smooth="yes"/>
      <point x="450" y="201"/>
      <point x="489" y="218"/>
      <point x="512" y="237" type="qcurve"/>
      <point x="537" y="205" type="line"/>
      <point x="516" y="180"/>
      <point x="462" y="153"/>
    </contour>
    <contour>
      <point x="421" y="338" type="qcurve" smooth="yes"/>
      <point x="387" y="338"/>
      <point x="359" y="347" type="qcurve" smooth="yes"/>
      <point x="339" y="354"/>
      <point x="287" y="377" type="qcurve" smooth="yes"/>
      <point x="255" y="392"/>
      <point x="204" y="410"/>
      <point x="176" y="410" type="qcurve" smooth="yes"/>
      <point x="150" y="410"/>
      <point x="111" y="393"/>
      <point x="88" y="374" type="qcurve"/>
      <point x="63" y="406" type="line"/>
      <point x="84" y="431"/>
      <point x="138" y="458"/>
      <point x="179" y="458" type="qcurve" smooth="yes"/>
      <point x="213" y="458"/>
      <point x="241" y="449" type="qcurve" smooth="yes"/>
      <point x="261" y="442"/>
      <point x="313" y="419" type="qcurve" smooth="yes"/>
      <point x="345" y="404"/>
      <point x="396" y="386"/>
      <point x="424" y="386" type="qcurve" smooth="yes"/>
      <point x="450" y="386"/>
      <point x="489" y="403"/>
      <point x="512" y="422" type="qcurve"/>
      <point x="537" y="390" type="line"/>
      <point x="516" y="365"/>
      <point x="462" y="338"/>
    </contour>
  </outline>
</glyph>
<glyph name="check" format="2">
  <advance width="912"/>
  <unicode hex="2713"/>
  <outline>
    <contour>
      <point x="372" y="0" type="line"/>
      <point x="129" y="473" type="line"/>
      <point x="178" y="497" type="line"/>
      <point x="401" y="55" type="line"/>
      <point x="404" y="55" type="line"/>
      <point x="732" y="708" type="line"/>
      <point x="783" y="689" type="line"/>
      <point x="433" y="0" type="line"/>
    </contour>
  </outline>
</glyph>
<glyph name="uniF6D7" format="2">
  <unicode hex="F6D7"/>
  <outline>
    <contour>
      <point x="96" y="611" type="qcurve" smooth="yes"/>
      <point x="76" y="611"/>
      <point x="57" y="631"/>
      <point x="57" y="647" type="qcurve" smooth="yes"/>
      <point x="57" y="657" type="line" smooth="yes"/>
      <point x="57" y="673"/>
      <point x="76" y="693"/>
      <point x="96" y="693" type="qcurve" smooth="yes"/>
      <point x="116" y="693"/>
      <point x="135" y="673"/>
      <point x="135" y="657" type="qcurve" smooth="yes"/>
      <point x="135" y="647" type="line" smooth="yes"/>
      <point x="135" y="631"/>
      <point x="116" y="611"/>
    </contour>
    <contour>
      <point x="-25" y="716" type="line"/>
      <point x="70" y="879" type="line"/>
      <point x="120" y="854" type="line"/>
      <point x="11" y="698" type="line"/>
    </contour>
    <contour>
      <point x="-96" y="611" type="qcurve" smooth="yes"/>
      <point x="-116" y="611"/>
      <point x="-135" y="631"/>
      <point x="-135" y="647" type="qcurve" smooth="yes"/>
      <point x="-135" y="657" type="line" smooth="yes"/>
      <point x="-135" y="673"/>
      <point x="-116" y="693"/>
      <point x="-96" y="693" type="qcurve" smooth="yes"/>
      <point x="-76" y="693"/>
      <point x="-57" y="673"/>
      <point x="-57" y="657" type="qcurve" smooth="yes"/>
      <point x="-57" y="647" type="line" smooth="yes"/>
      <point x="-57" y="631"/>
      <point x="-76" y="611"/>
    </contour>
  </outline>
</glyph>
<glyph name="ff" format="2">
  <advance width="637"/>
  <unicode hex="FB00"/>
  <outline>
    <contour>
      <point x="117" y="0" type="line"/>
      <point x="117" y="462" type="line"/>
      <point x="29" y="462" type="line"/>
      <point x="29" y="512" type="line"/>
      <point x="117" y="512" type="line"/>
      <point x="117" y="655" type="line" smooth="yes"/>
      <point x="117" y="694"/>
      <point x="156" y="740"/>
      <point x="197" y="740" type="qcurve" smooth="yes"/>
      <point x="287" y="740" type="line"/>
      <point x="287" y="690" type="line"/>
      <point x="174" y="690" type="line"/>
      <point x="174" y="512" type="line"/>
      <point x="372" y="512" type="line"/>
      <point x="372" y="655" type="line" smooth="yes"/>
      <point x="372" y="694"/>
      <point x="411" y="740"/>
      <point x="452" y="740" type="qcurve" smooth="yes"/>
      <point x="542" y="740" type="line"/>
      <point x="542" y="690" type="line"/>
      <point x="429" y="690" type="line"/>
      <point x="429" y="512" type="line"/>
      <point x="542" y="512" type="line"/>
      <point x="542" y="462" type="line"/>
      <point x="429" y="462" type="line"/>
      <point x="429" y="0" type="line"/>
      <point x="372" y="0" type="line"/>
      <point x="372" y="462" type="line"/>
      <point x="174" y="462" type="line"/>
      <point x="174" y="0" type="line"/>
    </contour>
  </outline>
</glyph>
<glyph name="ffi" format="2">
  <advance width="802"/>
  <unicode hex="FB03"/>
  <outline>
    <contour>
      <point x="117" y="0" type="line"/>
      <point x="117" y="462" type="line"/>
      <point x="29" y="462" type="line"/>
      <point x="29" y="512" type="line"/>
      <point x="117" y="512" type="line"/>
      <point x="117" y="655" type="line" smooth="yes"/>
      <point x="117" y="694"/>
      <point x="156" y="740"/>
      <point x="197" y="740" type="qcurve" smooth="yes"/>
      <point x="287" y="740" type="line"/>
      <point x="287" y="690" type="line"/>
      <point x="174" y="690" type="line"/>
      <point x="174" y="512" type="line"/>
      <point x="373" y="512" type="line"/>
      <point x="373" y="655" type="line" smooth="yes"/>
      <point x="373" y="694"/>
      <point x="412" y="740"/>
      <point x="453" y="740" type="qcurve" smooth="yes"/>
      <point x="543" y="740" type="line"/>
      <point x="543" y="690" type="line"/>
      <point x="430" y="690" type="line"/>
      <point x="430" y="512" type="line"/>
      <point x="708" y="512" type="line"/>
      <point x="708" y="0" type="line"/>
      <point x="651" y="0" type="line"/>
      <point x="651" y="462" type="line"/>
      <point x="430" y="462" type="line"/>
      <point x="430" y="0" type="line"/>
      <point x="373" y="0" type="line"/>
      <point x="373" y="462" type="line"/>
      <point x="174" y="462" type="line"/>
      <point x="174" y="0" type="line"/>
    </contour>
    <contour>
      <point x="680" y="651" type="qcurve" smooth="yes"/>
      <point x="641" y="651"/>
      <point x="641" y="687" type="qcurve" smooth="yes"/>
      <point x="641" y="697" type="line" smooth="yes"/>
      <point x="641" y="733"/>
      <point x="680" y="733" type="qcurve" smooth="yes"/>
      <point x="700" y="733"/>
      <point x="719" y="713"/>
      <point x="719" y="697" type="qcurve" smooth="yes"/>
      <point x="719" y="687" type="line" smooth="yes"/>
      <point x="719" y="671"/>
      <point x="700" y="651"/>
    </contour>
  </outline>
</glyph>
<glyph name="five.subs" format="2">
  <advance width="345"/>
  <outline>
    <contour>
      <point x="168" y="464" type="qcurve" smooth="yes"/>
      <point x="80" y="464"/>
      <point x="39" y="526" type="qcurve"/>
      <point x="72" y="551" type="line"/>
      <point x="87" y="529"/>
      <point x="130" y="501"/>
      <point x="168" y="501" type="qcurve" smooth="yes"/>
      <point x="212" y="501"/>
      <point x="256" y="543"/>
      <point x="256" y="578" type="qcurve" smooth="yes"/>
      <point x="256" y="586" type="line" smooth="yes"/>
      <point x="256" y="621"/>
      <point x="215" y="663"/>
      <point x="171" y="663" type="qcurve" smooth="yes"/>
      <point x="142" y="663"/>
      <point x="106" y="645"/>
      <point x="92" y="630" type="qcurve"/>
      <point x="53" y="635" type="line"/>
      <point x="67" y="839" type="line"/>
      <point x="286" y="839" type="line"/>
      <point x="286" y="802" type="line"/>
      <point x="103" y="802" type="line"/>
      <point x="92" y="656" type="line"/>
      <point x="95" y="656" type="line"/>
      <point x="127" y="700"/>
      <point x="184" y="700" type="qcurve" smooth="yes"/>
      <point x="238" y="700"/>
      <point x="304" y="639"/>
      <point x="304" y="586" type="qcurve" smooth="yes"/>
      <point x="304" y="531"/>
      <point x="233" y="464"/>
    </contour>
  </outline>
</glyph>
<glyph name="four.sups" format="2">
  <advance width="346"/>
  <outline>
    <contour>
      <point x="218" y="-61" type="line"/>
      <point x="215" y="-61" type="line"/>
      <point x="61" y="-273" type="line"/>
      <point x="218" y="-273" type="line"/>
    </contour>
    <contour>
      <point x="218" y="-388" type="line"/>
      <point x="218" y="-309" type="line"/>
      <point x="20" y="-309" type="line"/>
      <point x="20" y="-270" type="line"/>
      <point x="200" y="-19" type="line"/>
      <point x="262" y="-19" type="line"/>
      <point x="262" y="-273" type="line"/>
      <point x="322" y="-273" type="line"/>
      <point x="322" y="-309" type="line"/>
      <point x="262" y="-309" type="line"/>
      <point x="262" y="-388" type="line"/>
    </contour>
  </outline>
</glyph>
<glyph name="three.subs" format="2">
  <advance width="346"/>
  <outline>
    <contour>
      <point x="161" y="464" type="qcurve" smooth="yes"/>
      <point x="74" y="464"/>
      <point x="31" y="526" type="qcurve"/>
      <point x="65" y="551" type="line"/>
      <point x="80" y="529"/>
      <point x="123" y="501"/>
      <point x="161" y="501" type="qcurve" smooth="yes"/>
      <point x="204" y="501"/>
      <point x="249" y="539"/>
      <point x="249" y="572" type="qcurve" smooth="yes"/>
      <point x="249" y="582" type="line" smooth="yes"/>
      <point x="249" y="643"/>
      <point x="162" y="643" type="qcurve" smooth="yes"/>
      <point x="114" y="643" type="line"/>
      <point x="114" y="680" type="line"/>
      <point x="157" y="680" type="line" smooth="yes"/>
      <point x="242" y="680"/>
      <point x="242" y="743" type="qcurve" smooth="yes"/>
      <point x="242" y="808"/>
      <point x="166" y="808" type="qcurve" smooth="yes"/>
      <point x="133" y="808"/>
      <point x="91" y="784"/>
      <point x="76" y="762" type="qcurve"/>
      <point x="44" y="787" type="line"/>
      <point x="83" y="845"/>
      <point x="167" y="845" type="qcurve"/>
      <point x="290" y="840"/>
      <point x="290" y="750" type="qcurve" smooth="yes"/>
      <point x="290" y="714"/>
      <point x="248" y="672"/>
      <point x="215" y="665" type="qcurve"/>
      <point x="215" y="662" type="line"/>
      <point x="252" y="656"/>
      <point x="297" y="611"/>
      <point x="297" y="572" type="qcurve" smooth="yes"/>
      <point x="297" y="523"/>
      <point x="224" y="464"/>
    </contour>
  </outline>
</glyph>
